<?xml version="1.0" standalone="no"?>
<!DOCTYPE svg PUBLIC "-//W3C//DTD SVG 1.1//EN" "http://www.w3.org/Graphics/SVG/1.1/DTD/svg11.dtd" >
<svg xmlns="http://www.w3.org/2000/svg">
<metadata></metadata>
<defs>
<font id="minion_probold" horiz-adv-x="1024" >
<font-face units-per-em="2048" ascent="1489" descent="-559" />
<missing-glyph horiz-adv-x="444" />
<glyph unicode="&#xfb03;" horiz-adv-x="1775" d="M43 831l63 74h82v35q0 85 37 160q31 63 71 110t105 93q140 97 277 108q98 -3 168.5 -33t105.5 -75q162 133 334 145q155 -3 246 -98q51 -54 24 -111q-18 -44 -63 -72q-56 -38 -90 -4q-4 4 -32.5 41t-53 62.5t-67.5 50t-87 24.5q-42 0 -70.5 -33.5t-41.5 -90.5 q-17 -72 -17 -236v-76h205q254 0 379 25v-725q0 -82 19.5 -104.5t105.5 -34.5v-66h-483v66q62 9 79 33.5t17 105.5v457q0 97 -16.5 121t-90.5 24h-215v-592q0 -39 3.5 -63t9 -40t20.5 -24.5t30 -12.5t46 -9v-66h-471v66q65 9 82.5 33.5t17.5 115.5v592h-321v-596 q0 -47 3 -71t16 -40.5t31 -22t56 -11.5v-66h-494v66q44 6 65 11.5t36.5 22t19.5 41.5t4 72v594h-133zM451 905h321v41q0 66 19 127q19 59 38 86q-28 53 -92.5 104.5t-144.5 51.5q-45 0 -77 -32.5t-46 -86.5q-18 -70 -18 -227v-64z" />
<glyph unicode="&#xfb04;" horiz-adv-x="1775" d="M47 831l62 74h79v39q0 81 43 166q57 107 170 186q146 105 293 111q169 -3 262 -92q151 121 306 127q124 3 221 -53q11 4 112 45l23 -11v-1218q0 -85 20.5 -106t108.5 -33v-66h-479v66q41 5 57 15t23.5 36.5t7.5 87.5v1040q-24 45 -68 76t-100 31q-65 0 -111 -66 q-43 -65 -43 -239v-142h215q7 -20 -0.5 -54t-27.5 -44h-187v-592q0 -50 3.5 -76t19 -41.5t33.5 -20.5t61 -11v-66h-479v66q46 7 64.5 17t27 38.5t8.5 93.5v592h-321v-594q0 -49 3 -73.5t16 -40.5t31 -21.5t56 -11.5v-66h-489v66q81 12 100.5 35t19.5 114v592h-131zM451 905 h321v39q0 21 2.5 42t5 32t8 32.5t7.5 28.5q6 27 39 95q-32 57 -91 97t-137 40q-52 0 -87 -38t-50 -97q-18 -69 -18 -215v-56z" />
<glyph horiz-adv-x="2048" />
<glyph horiz-adv-x="2048" />
<glyph unicode="&#xd;" horiz-adv-x="2048" />
<glyph unicode=" "  horiz-adv-x="444" />
<glyph unicode="&#x09;" horiz-adv-x="444" />
<glyph unicode="&#xa0;" horiz-adv-x="444" />
<glyph unicode="!" horiz-adv-x="583" d="M121 1274q0 88 170 88q166 0 166 -88q0 -14 -21 -150q-43 -243 -100 -675q-5 -19 -48 -19.5t-46 19.5q-48 368 -103 675q-18 117 -18 150zM137 135q0 70 44 116t112 46t112 -46t44 -116t-44.5 -115t-113.5 -45q-66 0 -110 45t-44 115z" />
<glyph unicode="&#x22;" horiz-adv-x="778" d="M74 1380l227 70l21 -14q-6 -105 -76 -533l-76 -37q-15 77 -38 209t-38 211.5t-20 93.5zM449 1380l229 70l18 -14q-3 -49 -29 -232t-46 -301l-76 -37q-15 77 -38 209t-38 211.5t-20 93.5z" />
<glyph unicode="#" d="M43 377l23 168h215l57 248h-182l20 168h203l72 296h104l-74 -296h199l70 296h100l-70 -296h178l-22 -168h-195l-61 -248h172l-27 -168h-184l-84 -346h-100l82 346h-197l-82 -346h-102l82 346h-197zM383 545h197l59 248h-197z" />
<glyph unicode="$" d="M86 395l66 13q110 -285 327 -304v431l-63 26q-301 121 -301 338q0 142 96 238.5t268 119.5v154h84v-147q96 0 191 -25q55 -15 73 -18q37 -198 47 -275l-65 -10q-15 45 -31 79t-44 70.5t-71.5 60.5t-99.5 32v-398l78 -28q133 -49 219 -134.5t86 -211.5 q-1 -160 -104 -260.5t-279 -120.5v-170h-84v163q-111 1 -201 29t-137 57q-21 63 -55 291zM315 1001q0 -68 43.5 -112.5t120.5 -75.5v365q-79 -11 -121.5 -62t-42.5 -115zM563 109q76 13 122 62.5t46 135.5q0 118 -141 185l-27 14v-397z" />
<glyph unicode="%" horiz-adv-x="1564" d="M84 942q0 48 11.5 97t37 96.5t61.5 83.5t90.5 58.5t118.5 22.5t118 -22.5t90 -58.5t61.5 -83t37 -95.5t11.5 -96.5q0 -62 -18.5 -123t-55.5 -115t-101 -88t-145 -34q-79 0 -142 34t-100 88t-56 115t-19 121zM285 946q0 -43 6 -88.5t18.5 -93t37.5 -77.5t59 -30 q33 0 57 30.5t35.5 78.5t16.5 92.5t5 85.5q0 45 -4.5 88t-16 90.5t-36.5 76t-60 28.5q-33 0 -57.5 -29.5t-37 -76t-18 -90.5t-5.5 -85zM317 -23l836 1354l78 -53l-838 -1354zM848 332q0 62 19 123.5t56.5 115.5t101.5 87.5t144 33.5q63 0 116.5 -22.5t89.5 -58.5t61.5 -83.5 t37 -96.5t11.5 -97q0 -61 -18.5 -122t-55.5 -115.5t-100.5 -88t-143.5 -33.5q-64 0 -118.5 22.5t-90.5 59t-61.5 83.5t-37 95.5t-11.5 96.5zM1049 336q0 -43 5.5 -87.5t17.5 -92t37 -77.5t60 -30q34 0 58 30.5t35.5 79t16.5 92t5 85.5q0 45 -5 88.5t-16.5 90t-37 75 t-60.5 28.5q-33 0 -57.5 -28.5t-36.5 -74t-17 -90t-5 -89.5z" />
<glyph unicode="&#x26;" horiz-adv-x="1464" d="M88 352q0 36 7.5 68.5t17 57.5t33 54t40 46.5t55 48t61 46.5t73.5 52q-137 130 -137 291q0 139 110 241.5t262 102.5q153 0 249.5 -84t96.5 -213q0 -97 -86 -170q-55 -47 -163 -121q130 -108 317 -287q52 74 100 177q35 69 13 98.5t-125 42.5l2 69h485v-69 q-93 -9 -140 -36t-104 -101q-35 -44 -172 -240q205 -199 355 -430l-13 -25q-137 0 -231.5 24t-120.5 50q-13 12 -67.5 71t-94.5 99q-187 -244 -395 -244q-99 0 -182.5 34.5t-136 89.5t-81 122t-28.5 135zM342 446q0 -139 80.5 -213.5t193.5 -74.5q64 0 132 34.5t108 83.5 q-71 73 -145.5 143t-121.5 111.5t-161 141.5q-41 -44 -63.5 -104.5t-22.5 -121.5zM453 1100q0 -75 43.5 -136t150.5 -145q103 87 103 254q0 84 -43 145.5t-117 61.5q-57 0 -97 -54t-40 -126z" />
<glyph unicode="'" horiz-adv-x="407" d="M70 1380l231 70l21 -14q-12 -127 -76 -533l-76 -37q-10 55 -37.5 203.5t-42.5 222.5t-20 88z" />
<glyph unicode="(" horiz-adv-x="720" d="M156 555v2q0 590 434 905l53 -55q-138 -140 -215.5 -364.5t-77.5 -487.5q0 -262 81 -495t212 -355l-53 -57q-434 312 -434 907z" />
<glyph unicode=")" horiz-adv-x="720" d="M78 -299q136 133 213.5 361t77.5 493q0 260 -81.5 495.5t-209.5 360.5l53 51q432 -316 432 -909q0 -589 -432 -905z" />
<glyph unicode="*" horiz-adv-x="829" d="M66 1202l36 51l252 -159l123 268l60 -14l-50 -287l273 -12l2 -60l-268 -57l69 -283l-55 -22l-148 262l-251 -152l-35 54l205 196z" />
<glyph unicode="+" horiz-adv-x="1181" d="M96 453v133h420v407h152v-407h417v-133h-417v-453h-152v453h-420z" />
<glyph unicode="," horiz-adv-x="520" d="M72 -201q94 38 139 86.5t45 112.5q0 54 -40 95.5t-110 56.5q-9 2 -18.5 22t-9.5 51q0 46 38.5 76.5t90.5 30.5q84 0 160.5 -74.5t76.5 -185.5q0 -68 -30 -127t-81 -100.5t-110.5 -70t-126.5 -44.5z" />
<glyph unicode="-" horiz-adv-x="700" d="M84 397l31 146h503l-30 -146h-504z" />
<glyph unicode="." horiz-adv-x="520" d="M109 131q0 67 43 111.5t108 44.5q66 0 109 -44t43 -112q0 -69 -43 -112.5t-111 -43.5q-64 0 -106.5 44t-42.5 112z" />
<glyph unicode="/" horiz-adv-x="669" d="M35 -92l444 1454h144l-445 -1454h-143z" />
<glyph unicode="0" d="M57 637q0 96 14.5 186.5t49 178.5t86 153t131 105t178.5 40q83 0 152 -28t117 -77.5t84.5 -113t57 -139.5t30.5 -151t10 -152q0 -95 -13.5 -184.5t-47.5 -178t-84 -154t-130 -106.5t-180 -41q-99 0 -179 41t-130.5 107t-84 154t-47.5 177.5t-14 182.5zM338 645 q0 -110 9 -209t29 -186.5t56 -139t84 -51.5t83 49.5t53 136.5t26 184.5t8 213.5q0 115 -9 213t-29 181.5t-55.5 131.5t-84.5 48t-84 -49t-53 -135t-25.5 -180.5t-7.5 -207.5z" />
<glyph unicode="1" d="M193 1135v59q168 25 466 106v-1044q0 -58 4.5 -88t23.5 -53.5t53.5 -32t97.5 -12.5v-70h-629v70q63 4 97 12t53.5 31t24.5 53.5t5 89.5v743q0 82 -14.5 102.5t-77.5 26.5z" />
<glyph unicode="2" d="M68 0v53q9 9 53.5 52t60 58t53 52.5t59 60t50.5 54.5t53 61q224 266 224 479q0 111 -55 177.5t-158 66.5q-86 0 -151.5 -48.5t-123.5 -131.5l-59 47l131 193q126 126 307 126q158 0 265.5 -99.5t107.5 -264.5q0 -117 -65 -225t-220 -256l-246 -234h332q36 0 54 0.5 t39.5 5.5t32 12.5t27 24.5t29.5 37.5t33 56.5l68 -22q-18 -66 -44 -182.5t-36 -153.5h-821z" />
<glyph unicode="3" d="M80 125q0 25 18.5 50.5t42.5 41.5q36 31 76 4q27 -25 45 -39.5t55.5 -40t79 -38.5t84.5 -13q81 0 132 69.5t51 207.5q0 70 -22.5 124t-59.5 83.5t-78.5 44t-85.5 14.5q-53 0 -111 -15l-14 70q295 97 295 266q0 94 -50.5 140.5t-125.5 46.5q-73 0 -129.5 -38.5 t-114.5 -115.5l-53 49l102 138q114 126 289 126h2q156 0 245 -76.5t89 -199.5q0 -78 -66 -137q-35 -33 -149 -105v-4q145 -27 224 -115.5t79 -207.5q0 -95 -47.5 -178t-118 -136.5t-152 -92.5t-148 -56t-108.5 -17q-72 0 -132 20t-95 48q-49 38 -49 82z" />
<glyph unicode="4" d="M31 356v84q372 526 633 848h147v-815h184v-117h-184v-127q0 -51 4 -76t22.5 -44.5t49 -26t90.5 -12.5v-70h-610v70q67 5 102.5 13.5t54.5 30t23 46.5t4 78v118h-520zM184 473h367v537h-4q-198 -273 -363 -537z" />
<glyph unicode="5" d="M78 125q0 23 19 53t46 51q34 22 74 -12q136 -125 264 -125q92 0 140.5 72.5t48.5 191.5q0 138 -82 220.5t-221 82.5q-107 0 -224 -38l93 655h651l12 -21l-65 -200h-523l-55 -314q182 66 264 66q95 0 174.5 -29t130.5 -77t79 -109.5t28 -128.5q0 -203 -207 -348 q-88 -63 -190.5 -101t-194.5 -39q-60 0 -119 19t-92 47q-30 24 -40.5 42t-10.5 42z" />
<glyph unicode="6" d="M57 498q0 126 34 237.5t88.5 192t128 146.5t146 106.5t148.5 66.5q129 43 305 66l15 -78q-117 -24 -220 -74q-266 -136 -335 -426l102 47q84 41 121 41q177 0 285 -105t108 -278q0 -196 -132.5 -330.5t-332.5 -134.5q-97 0 -181 36.5t-146 102.5t-98 165t-36 219z M340 489q0 -194 66 -312t153 -118q45 0 77.5 26t48.5 70.5t23 92t7 102.5q0 145 -66 236.5t-170 91.5q-60 0 -127 -23q-12 -53 -12 -166z" />
<glyph unicode="7" d="M80 920q17 96 35.5 223.5t19.5 132.5h840l18 -25q-46 -97 -182 -381.5t-228.5 -482.5t-176.5 -387l-211 -25l-17 27q309 457 623 1053h-436q-103 0 -136.5 -21.5t-76.5 -113.5h-72z" />
<glyph unicode="8" d="M66 322q0 44 15.5 82t30.5 56t40 42q45 40 188 125q-223 124 -223 317q0 149 118.5 252.5t301.5 103.5q166 0 270 -89.5t104 -227.5q0 -88 -67 -152q-68 -60 -150 -112q61 -33 104.5 -64t84.5 -73.5t62.5 -97t21.5 -119.5q0 -75 -28.5 -140t-75 -110t-106.5 -77.5 t-123 -47.5t-124 -15q-201 0 -322.5 95t-121.5 252zM311 346q0 -139 67.5 -214t153.5 -75q85 0 136.5 61.5t50.5 162.5q0 27 -4.5 50.5t-16 45t-22.5 38t-34.5 36t-40.5 32t-53 33.5t-59.5 34t-70.5 38q-46 -35 -76.5 -100.5t-30.5 -141.5zM352 1038q0 -51 18 -91.5t56 -74 t80.5 -58.5t109.5 -56q76 72 76 215q0 121 -58 183.5t-130 62.5q-68 0 -110 -55.5t-42 -125.5z" />
<glyph unicode="9" d="M49 860q0 56 18.5 115.5t57 118t92.5 104t132.5 74t168.5 28.5q108 0 194.5 -41t141 -112.5t83 -164.5t28.5 -200q0 -268 -139.5 -461.5t-368.5 -283.5q-59 -24 -168.5 -45t-179.5 -23l-13 74q221 39 374 183.5t194 334.5l-101 -53q-69 -35 -119 -35q-180 0 -287.5 110 t-107.5 277zM319 942q0 -137 67.5 -232.5t176.5 -95.5q48 0 113 27q10 69 10 152q0 80 -11 152t-34 135.5t-66 101t-100 37.5q-77 0 -116.5 -82.5t-39.5 -194.5z" />
<glyph unicode=":" horiz-adv-x="520" d="M113 131q0 66 42.5 110t106.5 44q66 0 109 -44t43 -110q0 -69 -43 -112.5t-111 -43.5q-63 0 -105 43.5t-42 112.5zM113 702q0 69 42.5 112.5t108.5 43.5q64 0 106 -44t42 -112q0 -66 -42.5 -109.5t-107.5 -43.5q-64 0 -106.5 43.5t-42.5 109.5z" />
<glyph unicode=";" horiz-adv-x="520" d="M78 -201q92 39 136 87t44 112q0 55 -39 96t-110 56q-9 2 -19 22.5t-10 50.5q0 48 38 78.5t91 30.5q84 0 160.5 -75t76.5 -185q0 -69 -30 -128.5t-81 -100.5t-110 -69.5t-127 -45.5zM113 702q0 69 42.5 112.5t108.5 43.5q64 0 106 -44t42 -112q0 -66 -42.5 -109.5 t-107.5 -43.5q-64 0 -106.5 43.5t-42.5 109.5z" />
<glyph unicode="&#x3c;" horiz-adv-x="1122" d="M109 449v139l909 448v-143l-760 -373v-4l760 -373v-143z" />
<glyph unicode="=" horiz-adv-x="1181" d="M96 266v133h991v-133h-991zM96 641v133h991v-133h-991z" />
<glyph unicode="&#x3e;" horiz-adv-x="1122" d="M111 0v143l757 373v4l-757 373v143l907 -448v-139z" />
<glyph unicode="?" horiz-adv-x="817" d="M94 1190q0 28 11 46t36 40q46 40 115 63t115 23h2q65 0 131.5 -29.5t118.5 -78t85 -116t33 -137.5q0 -68 -24 -116.5t-96 -100.5q-2 -2 -46.5 -31t-60.5 -41.5t-46.5 -38t-43 -46.5t-12.5 -41q0 -53 57 -123l-47 -49q-43 17 -86 42.5t-83.5 60t-65.5 79.5t-25 92 q0 63 45 123t153 127q18 11 49.5 31t48 30.5t40.5 26.5t37 26.5t26.5 23t19 23t5.5 19.5q0 36 -23.5 56t-68.5 20q-47 0 -96 -22.5t-81.5 -50t-61.5 -50t-40 -22.5q-38 0 -79.5 44t-41.5 97zM231 137q0 68 45 114t111 46q67 0 112.5 -46t45.5 -114q0 -71 -45.5 -116.5 t-114.5 -45.5q-65 0 -109.5 45.5t-44.5 116.5z" />
<glyph unicode="@" horiz-adv-x="1568" d="M113 428q1 138 43.5 259.5t117 211t172.5 154t212 97t233 32.5q137 0 251 -43t188 -115t114.5 -165t40.5 -195q0 -142 -65 -260t-182.5 -187.5t-262.5 -69.5q-79 0 -98.5 33.5t-4.5 114.5l17 94l-4 2q-57 -82 -159 -161.5t-175 -79.5q-46 0 -76 47t-29 135q4 211 162 375 q64 64 163 108.5t194 44.5q45 0 110 -18q31 -8 76 -8q-45 -171 -98 -451q-9 -49 -9.5 -78.5t8 -43.5t27.5 -13q48 1 97.5 26.5t93.5 74t72 130.5t28 183q0 135 -65.5 234t-172.5 147.5t-239 48.5q-178 0 -320.5 -85t-222 -235t-78.5 -336q0 -80 18.5 -154.5t60 -145 t103.5 -123t155.5 -84t207.5 -31.5q186 0 313 69l27 -63q-181 -109 -397 -109q-131 0 -247 40.5t-206 117t-142.5 199.5t-51.5 276zM649 403q-5 -100 39 -100q17 0 49 21t79 73.5t87 122.5q41 114 62 223q-48 25 -103 25q-62 0 -114 -55q-40 -43 -68 -130.5t-31 -179.5z" />
<glyph unicode="A" horiz-adv-x="1445" d="M37 0v72q102 12 140 47t89 164l420 1052l105 27q373 -1020 391 -1067q37 -96 62 -136.5t59.5 -59.5t103.5 -27v-72h-586v72q89 14 107 40q8 11 8 28q0 25 -16 65q-35 106 -82 231h-394q-38 -104 -73 -219q-16 -40 -16 -68q1 -23 11 -35q22 -30 130 -42v-72h-459zM479 545 h320l-152 444h-6q-25 -66 -52.5 -141.5t-59.5 -164t-50 -138.5z" />
<glyph unicode="B" horiz-adv-x="1304" d="M72 0v72q44 4 68.5 7.5t47 12.5t32 20.5t17.5 35t9.5 51.5t1.5 75v783q0 47 -1.5 75.5t-9 52t-16.5 35t-30.5 20.5t-43.5 12.5t-63 7.5v71h598q228 0 338 -69q57 -37 89 -98t32 -136q0 -70 -28.5 -125.5t-77.5 -90.5t-101 -56t-113 -33v-8q393 -48 393 -320 q0 -100 -50.5 -179t-139.5 -128q-155 -88 -432 -88h-520zM518 279q0 -111 34 -153q32 -40 108 -40h8q97 2 170 74.5t73 212.5q0 289 -352 289h-41v-383zM518 743h47q147 0 216 60t69 188q0 130 -64 193t-157 63q-66 0 -92 -26q-19 -19 -19 -88v-390z" />
<glyph unicode="C" horiz-adv-x="1384" d="M86 649q0 209 100 371t285 252t426 90q47 0 95.5 -4t93.5 -12t75 -14t67 -15t42 -10q33 -208 47 -334l-76 -15q-25 88 -66 151t-92.5 97.5t-106.5 50t-118 15.5q-87 0 -162 -31.5t-129 -86.5t-93 -128.5t-58 -159t-19 -176.5q0 -280 135.5 -452t346.5 -172 q126 0 224 78.5t177 236.5l72 -31q-55 -203 -115 -327q-238 -54 -381 -54q-158 0 -288.5 39.5t-218.5 105.5t-148.5 154.5t-87.5 184t-27 196.5z" />
<glyph unicode="D" horiz-adv-x="1558" d="M66 0v72q46 4 70.5 7.5t48.5 12.5t33.5 20t18 34.5t10 52t1.5 75.5v783q0 47 -2 75.5t-9.5 52t-16.5 35t-30.5 20.5t-43.5 12.5t-62 7.5v71h614q404 0 588 -176q182 -171 182 -436q0 -354 -256 -549q-225 -170 -620 -170h-526zM522 287q0 -114 35 -156.5t139 -42.5 q208 0 335.5 159t127.5 431q0 143 -40.5 257.5t-112.5 184.5q-124 127 -334 127q-101 0 -129 -28q-21 -24 -21 -113v-819z" />
<glyph unicode="E" horiz-adv-x="1189" d="M53 0v72q49 4 75.5 7.5t52 12.5t36 20t19 34.5t10.5 51t2 74.5v787q0 47 -1.5 76t-9.5 52.5t-17 34.5t-31 19.5t-44 12t-63 6.5v71h965l4 -64t8 -119t8 -124l-76 -10q-31 125 -82 176q-26 28 -72 39.5t-132 11.5h-99q-58 0 -71 -11t-13 -61v-434h137q48 0 75.5 1.5t54 7 t39.5 14.5t25.5 27.5t19.5 42t14 61.5h74v-412h-74q-7 39 -13.5 63t-19.5 42.5t-25.5 27.5t-39.5 15t-54 7t-76 1h-137v-357q0 -78 10 -115.5t39 -51.5q49 -21 185 -21q84 0 137.5 14.5t87.5 51.5q60 66 115 200l73 -14q-10 -64 -33.5 -176t-37.5 -164h-1045z" />
<glyph unicode="F" horiz-adv-x="1134" d="M82 0v72q43 4 65.5 7.5t44.5 13t31 21.5t16.5 38t9 56.5t1.5 82.5v756q0 49 -1.5 79t-9 55t-17 37t-31 21.5t-44.5 13t-65 7.5v71h969q9 -152 22 -313l-72 -12q-32 124 -81 176q-32 33 -79 46t-134 13h-103q-55 0 -67.5 -11t-12.5 -61v-452h168q95 0 136.5 11t59.5 39.5 t30 98.5h73v-407h-73q-6 38 -11.5 60t-17 41.5t-24.5 28.5t-39 15.5t-55.5 8t-78.5 1.5h-168v-323q0 -53 1.5 -83t10 -56t18.5 -38t36 -21.5t52.5 -13t76.5 -7.5v-72h-637z" />
<glyph unicode="G" horiz-adv-x="1488" d="M90 651q0 137 43 253t118.5 199.5t177.5 142.5t221.5 87.5t250.5 28.5q40 0 83.5 -3.5t77 -7.5t75.5 -11.5t63 -12t57.5 -13t42.5 -9.5q5 -56 33 -338l-78 -17q-35 165 -139 245.5t-256 80.5q-92 0 -175.5 -41t-146.5 -115t-100 -186.5t-37 -247.5q0 -119 30 -229.5 t87.5 -202t153.5 -146.5t217 -55q77 0 115 25q47 27 47 115v194q0 41 -1.5 62t-10 43t-20.5 31.5t-40 19t-62 13.5t-92 9v72h615v-72q-35 -7 -52 -12.5t-32 -14.5t-20.5 -27.5t-8 -43t-2.5 -68.5v-163q0 -129 12 -193q-232 -55 -346 -67q-65 -7 -121 -7q-235 0 -412 84.5 t-272.5 239t-95.5 358.5z" />
<glyph unicode="H" horiz-adv-x="1603" d="M72 1260v71h614v-71q-41 -4 -63.5 -7.5t-44 -12.5t-30 -20t-16 -35t-9 -51.5t-1.5 -74.5v-301h559v301q0 47 -1.5 74.5t-9 51.5t-16.5 35t-31 20t-45.5 12.5t-66.5 7.5v71h617v-71q-45 -4 -69 -7.5t-46.5 -13t-31 -20t-16 -35t-8.5 -51t-1 -74.5v-789q0 -47 1.5 -74 t9 -50.5t16.5 -34t31.5 -19.5t46 -12.5t67.5 -7.5v-72h-625v72q46 4 70 7.5t47.5 12.5t33 19.5t17 34.5t9 51.5t1.5 74.5v381h-559v-381q0 -47 1.5 -74.5t9 -51t16 -34.5t30.5 -20t45 -12.5t66 -7.5v-72h-610v72q42 4 65 7.5t45 12.5t31 20t16.5 34.5t9 51t1.5 74.5v787 q0 47 -1.5 74.5t-9.5 51.5t-17.5 35t-32 20t-47 12.5t-68.5 7.5z" />
<glyph unicode="I" horiz-adv-x="774" d="M76 0v72q43 4 66.5 7.5t46 12.5t32 20.5t17 35t9 51t1.5 73.5v785q0 47 -1.5 75.5t-9.5 52t-17 35t-31.5 20.5t-46 12.5t-66.5 7.5v71h616v-71q-43 -4 -66.5 -7.5t-45.5 -12.5t-31 -20t-16.5 -35.5t-9 -52t-1.5 -75.5v-785q0 -47 1.5 -74t9 -51t16.5 -35t31 -20 t45.5 -12.5t66.5 -7.5v-72h-616z" />
<glyph unicode="J" horiz-adv-x="749" d="M41 -258q85 36 131 94.5t61 155.5q23 144 23 397v670q0 47 -1.5 75t-9.5 51t-18 34.5t-32.5 20.5t-46.5 12.5t-68 7.5v71h610v-71q-40 -4 -62 -7.5t-42.5 -12.5t-29.5 -20t-16 -35t-8.5 -51.5t-1.5 -74.5v-678q0 -81 -3.5 -138.5t-15.5 -125t-34 -119t-61 -105t-94 -98.5 q-114 -97 -250 -127z" />
<glyph unicode="K" horiz-adv-x="1439" d="M76 1260v71h602v-71q-41 -4 -63 -7.5t-43 -12.5t-30 -20.5t-16 -35t-8.5 -52t-1.5 -75.5v-348q70 20 156 108q162 165 286 332q31 37 31 61q0 6 -2 11q-10 25 -80 34l-37 5v71h533v-71q-102 -10 -173 -39.5t-151 -104.5q-54 -50 -104.5 -101t-109 -112.5t-85.5 -89.5 q193 -290 430 -590q61 -77 110 -109.5t112 -41.5v-72h-412q-218 299 -404 573q-31 44 -53 58.5t-47 11.5v-369q0 -47 1.5 -75t9.5 -52t17.5 -35t32.5 -20t46.5 -12.5t68.5 -7.5v-72h-612v72q42 4 64 7.5t44 12.5t31.5 20t17 34.5t9.5 52t2 75.5v783q0 47 -1.5 75.5t-9.5 52 t-17 35t-31.5 20.5t-46 12.5t-66.5 7.5z" />
<glyph unicode="L" horiz-adv-x="1128" d="M49 0v72q50 4 77 7.5t53 12.5t36.5 20t19.5 34.5t11 51t2 74.5v785q0 47 -1.5 75.5t-9.5 52t-18 35t-32.5 20.5t-46.5 12.5t-68 7.5v71h624v-71q-44 -4 -67.5 -7.5t-46.5 -12.5t-32 -20.5t-17 -35t-9.5 -52t-1.5 -75.5v-801q0 -74 9.5 -105.5t39.5 -44.5q48 -18 154 -18 q149 0 211 70q63 69 113 211l73 -23q-43 -235 -75 -346h-998z" />
<glyph unicode="M" horiz-adv-x="1818" d="M35 0v72q85 7 121 34t47 84q23 122 43 388l33 405q3 47 4.5 78t-0.5 60.5t-6 46.5t-14 33.5t-22 25t-33 16t-45 11t-59 6.5v71h424l394 -897l401 897h414v-71q-30 -3 -49.5 -5.5t-38.5 -7t-29.5 -9.5t-21.5 -13t-14.5 -18.5t-9 -25t-4.5 -32.5t-1.5 -41t0.5 -51l18 -766 q1 -53 3 -81t9 -55t16 -38.5t31 -22t46.5 -14.5t68.5 -8v-72h-606v72q43 4 66 8t44.5 14.5t30 22t15 38.5t7.5 55t1 81l-4 788h-10l-453 -1065h-57l-418 1045h-8l-25 -535q-6 -112 -6 -194.5t6 -134.5q6 -67 42.5 -90.5t141.5 -32.5v-72h-493z" />
<glyph unicode="N" horiz-adv-x="1515" d="M33 1262v69h379l784 -899h6v361q0 180 -16 337q-8 68 -50 97t-153 35v69h500v-69q-84 -5 -120.5 -32t-43.5 -95q-19 -200 -19 -342v-813h-98l-852 1019h-6v-458q0 -171 16 -334q8 -71 47.5 -101t149.5 -34v-72h-502v72q87 6 125.5 35t44.5 94q21 179 21 340v426 q0 107 -6.5 146.5t-34.5 74.5q-29 36 -67 52t-105 22z" />
<glyph unicode="O" horiz-adv-x="1568" d="M86 662q0 106 29.5 207.5t90 190.5t145 156t202 105.5t254.5 38.5q139 0 263 -50t216 -138t145.5 -216t53.5 -276q0 -162 -55.5 -297t-151.5 -225t-224.5 -139.5t-273.5 -49.5q-201 0 -360.5 91.5t-246.5 249.5t-87 352zM401 702q0 -178 48.5 -323.5t144.5 -234.5 t223 -89q153 0 252.5 148t99.5 420q0 302 -110.5 476.5t-292.5 174.5q-158 0 -261.5 -156t-103.5 -416z" />
<glyph unicode="P" horiz-adv-x="1226" d="M76 0v70q43 4 66.5 7.5t46 12.5t32 20.5t17 35t9 51.5t1.5 75v785q0 56 -4 87.5t-11.5 54.5t-28.5 34t-45.5 16.5t-72.5 10.5v71h565q244 0 359 -80q151 -104 151 -301q0 -99 -34.5 -177.5t-94.5 -128.5t-133 -79.5t-158 -40.5q-31 -4 -84 -4l-139 35v-283 q0 -47 1.5 -74.5t10 -51.5t19 -35t35.5 -20.5t52 -13t75 -7.5v-70h-635zM518 635q53 -21 111 -21q26 0 53.5 7.5t61.5 29.5t60 57t44 96t18 140q0 83 -21.5 145t-59 96t-80.5 50t-93 16q-51 0 -75 -20q-19 -16 -19 -64v-532z" />
<glyph unicode="Q" horiz-adv-x="1552" d="M86 653q0 138 47 264t134.5 226t227 159.5t310.5 59.5q139 0 263 -50t216 -138t145.5 -216t53.5 -276q0 -247 -130 -426.5t-323 -239.5q283 -199 473 -297l-16 -55q-55 -7 -107 -7q-27 0 -52 2q-78 5 -142 22q-65 16 -187.5 85t-296.5 207q-104 7 -228.5 62t-205.5 143 q-88 95 -135 218t-47 257zM399 702q0 -246 88.5 -421t245.5 -220l168 54q9 -6 53 -39q83 35 149 175t66 370q0 303 -111 479t-296 176q-109 0 -192.5 -76.5t-127 -206.5t-43.5 -291z" />
<glyph unicode="R" horiz-adv-x="1349" d="M72 0v72q63 6 93.5 13t51.5 30t26 57t5 102v787q0 44 -1.5 71t-9 50t-17 35t-30.5 21.5t-45.5 13.5t-64.5 8v71h575q135 0 219.5 -17.5t147.5 -58.5q137 -92 137 -272q0 -231 -256 -334q75 -148 168 -291q103 -165 156 -223q63 -66 125 -88l-13 -65q-4 0 -25 1t-36 1 q-127 6 -206 29.5t-124 61t-90 107.5q-19 29 -41.5 69t-39 71t-45 83.5t-42.5 79.5q-25 47 -56 67.5t-79 20.5h-39v-299q0 -46 1.5 -73.5t9 -51t17.5 -35t32 -21t46.5 -13.5t67.5 -8v-72h-618zM516 655h53q139 0 201 54q98 80 98 243q0 79 -21 138.5t-56.5 93t-77 49.5 t-86.5 16q-72 0 -92 -20q-19 -16 -19 -76v-498z" />
<glyph unicode="S" horiz-adv-x="1034" d="M78 389l72 25q14 -43 34 -88t53 -96t71.5 -89.5t91 -64t108.5 -25.5q94 0 149.5 59.5t55.5 157.5q0 86 -59.5 149.5t-184.5 129.5q-85 43 -144.5 82.5t-110.5 89.5t-76 110t-25 132q0 173 128 287t341 114q121 0 284 -53q4 -41 18 -140.5t21 -154.5l-71 -17 q-89 281 -285 281q-87 0 -143 -57t-56 -146q0 -82 56.5 -139t197.5 -129q87 -42 148.5 -82t112.5 -91t76.5 -113t25.5 -136q0 -178 -138.5 -297t-359.5 -119q-109 0 -207 29q-59 17 -123 45q-30 78 -61 346z" />
<glyph unicode="T" horiz-adv-x="1312" d="M55 979q4 68 13.5 208t11.5 195h51q22 -32 46 -41.5t71 -9.5h823q40 0 65.5 11t51.5 40h51q3 -138 23 -397l-74 -4q-38 161 -90 213q-27 27 -72 37t-137 10h-92v-969q0 -47 1.5 -74.5t10.5 -51t20 -34.5t37 -20t53 -12.5t78 -7.5v-72h-667v72q48 4 74.5 7.5t51.5 12.5 t35 20t19 34.5t10.5 51t1.5 74.5v969h-69q-119 0 -165.5 -13t-70.5 -42q-42 -42 -86 -207h-76z" />
<glyph unicode="U" horiz-adv-x="1492" d="M59 1260v71h617v-71q-42 -4 -65 -7.5t-45.5 -13t-31.5 -22t-17 -38t-9.5 -57t-1.5 -82.5v-446q0 -233 84 -359t248 -126q180 0 265 132.5t85 393.5v219q0 157 -21 285q-9 57 -53.5 86t-144.5 35v71h512v-71q-156 -8 -172 -121q-19 -120 -19 -285v-223q0 -175 -32.5 -300 t-114.5 -212q-70 -73 -169.5 -111.5t-209.5 -38.5q-228 0 -363 105q-87 69 -128.5 186.5t-41.5 296.5v483q0 51 -1.5 82.5t-9.5 57t-17.5 38t-32 22t-45.5 13t-66 7.5z" />
<glyph unicode="V" horiz-adv-x="1456" d="M31 1257v74h610v-74q-107 -17 -127 -43q-8 -10 -9 -27q0 -25 17 -63q15 -42 295 -772h6q192 509 256 715q27 71 27 110q0 19 -6 31q-20 36 -142 49v74h480v-74q-54 -6 -84.5 -14.5t-60 -34.5t-52.5 -67t-55 -117q-158 -371 -414 -1047h-102q-167 452 -416 1082 q-47 118 -87 153.5t-136 44.5z" />
<glyph unicode="W" horiz-adv-x="2004" d="M27 1260v71h604v-71q-110 -13 -132 -44q-10 -14 -10 -37q0 -28 15 -71q126 -444 207 -705h4q190 565 295 916h98q236 -638 344 -924h6q111 360 191 692q13 46 13 78q0 31 -13 49q-26 36 -146 46v71h482v-71q-104 -15 -145 -54t-83 -166q-168 -496 -338 -1063h-106 q-62 168 -175 474.5t-161 435.5h-4q-28 -85 -139 -412t-168 -498h-107q-33 108 -147.5 487.5t-180.5 590.5q-36 118 -74 155.5t-130 49.5z" />
<glyph unicode="X" horiz-adv-x="1419" d="M16 0v72q85 9 142.5 35t101.5 77q182 226 334 455q-226 374 -291 475q-43 73 -96 104.5t-156 41.5v71h617v-71q-42 -9 -64.5 -18.5t-29 -22t-4 -24.5t13.5 -32q64 -120 184 -309q102 132 184 287q21 36 21 58q0 12 -6 20q-17 23 -113 41v71h494v-71q-100 -12 -154.5 -40 t-116.5 -102q-71 -83 -256 -338q47 -73 160 -254t180 -284q63 -98 114 -128.5t159 -41.5v-72h-658v72q40 7 64 16t36 17t12 22.5t-4.5 26.5t-17.5 36q-17 31 -219 369q-165 -249 -223 -360q-24 -43 -24 -68q0 -13 7 -20q19 -22 123 -39v-72h-514z" />
<glyph unicode="Y" horiz-adv-x="1341" d="M33 1260v71h583v-71q-95 -13 -111 -38q-5 -8 -5 -20q0 -23 20 -59q43 -84 133 -252.5t103 -194.5q10 20 64.5 125t90.5 179t58 130q17 38 17 63q0 29 -32 43q-31 15 -106 24v71h475v-71q-94 -10 -140.5 -44.5t-105.5 -128.5q-49 -79 -73.5 -119t-67 -115.5t-88.5 -166.5 q-23 -41 -30 -67.5t-7 -73.5v-262q0 -51 1.5 -79.5t10 -54.5t18.5 -37.5t36 -21t53.5 -13t79.5 -7.5v-70h-666v70q49 4 75.5 7.5t51.5 13t35.5 21t19 37t10 55t1.5 79.5v227q0 35 -5.5 56t-21.5 57q-63 126 -254 464q-56 100 -96.5 130.5t-126.5 42.5z" />
<glyph unicode="Z" horiz-adv-x="1267" d="M59 35q265 401 781 1204h-258q-102 0 -159 -8.5t-80.5 -22.5t-41.5 -41q-52 -77 -80 -194l-67 2q3 85 11.5 222.5t10.5 184.5h53q22 -34 44.5 -42.5t74.5 -8.5h832l16 -31q-76 -118 -239 -371t-287.5 -447.5t-239.5 -377.5q102 -12 254 -12q290 0 363 68q37 36 66.5 88.5 t62.5 146.5l67 -16q-42 -266 -74 -379h-1087z" />
<glyph unicode="[" horiz-adv-x="718" d="M240 -332v1774h378v-74q-42 -4 -68.5 -6.5t-52 -8.5t-39 -11t-25.5 -17t-16.5 -22.5t-8.5 -32t-4.5 -40.5t-0.5 -54v-1246q0 -35 0.5 -53t4 -40t7.5 -31.5t16.5 -22t25.5 -16.5t38.5 -10t52 -8.5t70.5 -6.5v-74h-378z" />
<glyph unicode="\" horiz-adv-x="679" d="M57 1362h144l422 -1454h-144z" />
<glyph unicode="]" horiz-adv-x="718" d="M100 -258q57 5 87.5 8.5t58.5 13.5t39 19.5t19.5 33t9.5 47t1 68.5v1246q0 45 -1 68.5t-9.5 47t-19.5 33t-39 19.5t-58.5 13.5t-87.5 8.5v74h379v-1774h-379v74z" />
<glyph unicode="^" horiz-adv-x="1144" d="M109 436l397 840h133l397 -840h-157l-310 686l-311 -686h-149z" />
<glyph unicode="_" d="M0 -154h1024v-102h-1024v102z" />
<glyph unicode="`" horiz-adv-x="819" d="M164 1321l8 29q23 15 100.5 30t108.5 11q66 -204 111 -363l-64 -27q-58 73 -154 188t-110 132z" />
<glyph unicode="a" horiz-adv-x="954" d="M61 238q0 77 36.5 120.5t119.5 75.5q27 10 92.5 33.5t101 36.5t76 32t56.5 33v62q0 95 -33.5 147.5t-89.5 52.5q-44 0 -70 -36q-31 -39 -57 -142q-18 -69 -86 -69q-43 0 -86 32t-43 70q0 26 17 47.5t55 50.5q65 44 161 87t178 59q121 0 201 -60q62 -48 84.5 -111.5 t22.5 -158.5v-338q0 -121 65 -121q31 0 70 17l20 -66l-223 -117q-79 0 -125 43q-37 32 -51 76q-11 -7 -34 -22.5t-36 -24t-33.5 -21.5t-34.5 -20.5t-29.5 -15.5t-27 -11.5t-20.5 -3.5q-123 0 -200 80.5t-77 182.5zM334 285q0 -77 40 -116.5t83 -39.5q42 0 86 33v327 q-17 -9 -53.5 -30t-59.5 -33q-50 -26 -73 -57.5t-23 -83.5z" />
<glyph unicode="b" horiz-adv-x="1093" d="M14 1303v63q211 24 387 74v-586l76 35q87 41 131 41q121 0 219 -60t151.5 -159t53.5 -213q0 -223 -153.5 -373t-378.5 -150q-164 0 -361 74v1110q0 89 -20 113.5t-105 30.5zM401 221q0 -38 11 -67q12 -32 46.5 -64t78.5 -33h4q87 0 146 96q61 98 61 281q0 94 -22.5 166 t-60 113.5t-83 62.5t-95.5 21q-39 0 -86 -15v-561z" />
<glyph unicode="c" horiz-adv-x="864" d="M59 412q0 112 55 215.5t152 175.5q92 67 184.5 97t161.5 30h2q115 0 177 -51q36 -23 36 -67v-7q0 -42 -30 -77.5t-58 -35.5q-19 0 -45 23q-120 106 -207 106q-69 0 -120.5 -73t-51.5 -224q0 -77 21.5 -141.5t53.5 -104t71.5 -67t74 -38.5t62.5 -11q65 0 114.5 18.5 t104.5 65.5l39 -49q-72 -101 -166 -161.5t-186 -60.5q-135 0 -238.5 63.5t-155 161.5t-51.5 212z" />
<glyph unicode="d" horiz-adv-x="1120" d="M59 424q0 138 73.5 254t203 184t285.5 68q9 0 84 -10v247q0 82 -21.5 103t-116.5 33v63q237 25 400 74v-1182q0 -61 7 -86t24.5 -34.5t64.5 -14.5l45 -4v-66q-4 -1 -43 -6.5t-75 -11.5t-85.5 -15.5t-101.5 -21.5t-98 -25v119l-125 -80q-58 -37 -103 -37q-54 0 -111 17 t-112 53.5t-98.5 88t-70 127t-26.5 163.5zM350 479q0 -89 24 -159.5t62 -109.5t78 -59t78 -20q62 0 113 33v573q-24 53 -63.5 80t-86.5 27q-17 0 -39.5 -7.5t-52.5 -32t-54.5 -62t-41.5 -106.5t-17 -157z" />
<glyph unicode="e" horiz-adv-x="894" d="M61 414q0 111 41.5 206t110.5 164t150 107.5t163 38.5h2q139 0 236.5 -100.5t97.5 -229.5q-2 -33 -14.5 -51.5t-44.5 -22.5q-30 -5 -189 -15.5t-301 -16.5q6 -158 83.5 -244t193.5 -86q125 0 229 88l35 -49q-44 -66 -96.5 -113.5t-103 -71t-92 -33.5t-77.5 -10 q-132 0 -230 61t-146 159.5t-48 218.5zM322 590q47 1 127.5 3t117.5 3q24 0 33.5 8t9.5 33v9q0 78 -33 138q-35 64 -92 64q-62 0 -107.5 -69.5t-55.5 -188.5z" />
<glyph unicode="f" horiz-adv-x="677" d="M45 831l61 74h82v45q0 54 27 137q41 130 174 242q116 95 244 111q108 -5 168 -62q25 -25 25 -54q0 -17 -9 -36q-12 -34 -61 -74q-20 -14 -38 -14t-32 14q-101 101 -172 101q-49 0 -63 -53q-9 -30 -9 -125q0 -65 4 -160l5 -72h235q7 -20 -1 -54t-28 -44h-206v-586 q0 -53 3.5 -77.5t23 -42.5t48.5 -23.5t92 -11.5v-66h-557v66q89 10 108 34t19 121v586h-133z" />
<glyph unicode="g" horiz-adv-x="1007" d="M55 -252q0 61 64 113q22 18 46.5 35t58.5 37.5t48 29.5q-58 21 -92 48.5t-61 64.5q-15 24 -23 55.5t-6 54.5q116 48 209 136q-94 31 -147.5 104t-53.5 168q0 82 36 148.5t94 106t126.5 60.5t139.5 21h2q110 0 219 -53q89 2 297 22l8 -14q-10 -32 -35.5 -70.5t-52.5 -54.5 l-117 10q53 -70 53 -158q0 -102 -56 -176t-142.5 -108.5t-190.5 -34.5q-25 0 -102 10q-29 -33 -29 -57q0 -31 33 -55q32 -23 95 -23h5q33 0 94.5 2t94.5 2q56 0 105 -10t99.5 -35t80.5 -78t30 -129q0 -113 -80 -211t-206 -153.5t-261 -55.5q-95 0 -170.5 22.5t-120.5 59.5 t-68.5 79.5t-23.5 86.5zM276 -188q0 -79 74 -139t191 -60q114 0 180.5 54t66.5 138q0 53 -31 87.5t-83 48.5q-73 16 -178 16q-75 0 -113 -9.5t-59 -33.5q-48 -51 -48 -102zM360 627q0 -113 36.5 -185.5t105.5 -72.5q60 0 91.5 59.5t31.5 173.5q0 108 -36.5 180t-107.5 72 q-49 0 -85 -60t-36 -167z" />
<glyph unicode="h" horiz-adv-x="1126" d="M25 0v66q34 3 50.5 5.5t34.5 9.5t24 14.5t12 25.5t7 38.5t1 55.5v954q0 34 -0.5 53t-6.5 35t-10 22.5t-22 12.5t-30 7.5t-46 5.5v61q170 22 377 74v-641q57 57 128.5 94t143.5 37q135 0 209 -86.5t74 -253.5v-375q0 -35 1 -55.5t7 -37.5t10.5 -24.5t21.5 -14.5t30.5 -9.5 t45.5 -7.5v-66h-481v66q73 10 89 32.5t16 108.5v360q0 111 -41 161t-107 50q-87 0 -147 -57v-514q0 -86 15 -109t79 -32v-66h-485z" />
<glyph unicode="i" horiz-adv-x="604" d="M57 0v66q41 5 60 9.5t36.5 13t23 28t8.5 44.5t3 72v406q0 36 -1 57.5t-6.5 39.5t-11.5 26.5t-21 16t-29.5 10.5t-42.5 8v59q192 22 375 74v-697q0 -58 2.5 -84.5t18.5 -46t38.5 -25t73.5 -11.5v-66h-527zM160 1202q0 61 43 102.5t102 41.5q62 0 104 -41.5t42 -102.5 q0 -59 -43 -101t-105 -42q-57 0 -100 42.5t-43 100.5z" />
<glyph unicode="j" horiz-adv-x="589" d="M-45 -387q0 25 13.5 40t35.5 15q133 6 154 41q18 37 24 146q8 161 8 385v385q0 47 -3 73t-8 44.5t-22.5 27.5t-34.5 14t-56 11v61q143 16 387 74v-666q0 -113 -13.5 -185t-44.5 -147q-55 -130 -145.5 -248t-140.5 -153q-42 -31 -72 -31q-25 0 -53.5 33.5t-28.5 79.5z M160 1202q0 61 43 102.5t102 41.5q61 0 103.5 -41.5t42.5 -102.5q0 -59 -43.5 -101t-104.5 -42q-57 0 -100 42.5t-43 100.5z" />
<glyph unicode="k" horiz-adv-x="1050" d="M18 0v66q37 5 53.5 7.5t36 10t25.5 15t12.5 25.5t7.5 38.5t1 56.5v948q0 86 -20.5 108.5t-102.5 31.5v59q186 20 379 74v-940q55 11 118 78q51 58 121 178q20 33 6.5 53t-69.5 29v61l442 19v-62q-99 -18 -156.5 -41t-99.5 -65q-62 -62 -145 -168q39 -63 142 -205.5 t155 -206.5q48 -55 82 -75t90 -29v-66l-361 -2q-62 76 -264 401q-27 37 -41 37q-12 4 -20 4v-221q0 -35 1 -56.5t8 -38.5t13.5 -25.5t25.5 -15.5t35 -9.5t52 -7.5v-66h-527z" />
<glyph unicode="l" horiz-adv-x="569" d="M20 0v66q52 8 74 13.5t38.5 23.5t19 43t2.5 79v936q0 34 -1 53t-6.5 36.5t-11 24.5t-22.5 14t-33 9.5t-49 6.5v61q193 23 385 74v-1215q0 -38 1 -59t6.5 -40t13 -27.5t25 -16t37 -10.5t54.5 -6v-66h-533z" />
<glyph unicode="m" horiz-adv-x="1726" d="M61 0v66q34 4 51 6.5t34.5 10t24 15t12 25t6.5 37.5t1 55v430q0 91 -16.5 116.5t-87.5 35.5v59q170 25 360 78v-158q80 58 129 88q101 66 179 66q83 0 143.5 -44t89.5 -116q27 20 76.5 53t71.5 49q84 58 159 58q133 0 205 -86.5t72 -243.5v-395q0 -87 17 -107t98 -32v-66 h-482v66q50 7 69 16.5t27.5 38t8.5 94.5v352q0 60 -12.5 102t-35 63t-45.5 29.5t-51 8.5q-73 0 -157 -70q4 -46 4 -82v-413q0 -86 17.5 -108t88.5 -31v-66h-473v66q41 5 58 9t30 20t15 38.5t2 71.5v373q0 103 -39 147.5t-103 44.5q-75 0 -157 -65v-500q0 -60 7.5 -86.5 t24.5 -36t60 -16.5v-66h-482z" />
<glyph unicode="n" horiz-adv-x="1159" d="M53 0v66q38 5 54.5 8t36 10.5t25 15t12 26.5t7 39t0.5 58v426q0 91 -16.5 113t-91.5 37v57q175 21 371 78v-150q19 12 61 42.5t66 45.5q50 32 83.5 45t75.5 13q125 0 197 -87.5t72 -240.5v-387q0 -35 1 -55t6.5 -37t11 -25t22 -15t31 -9.5t46.5 -7.5v-66h-477v66 q36 5 52 10t28 23.5t14 46t2 85.5v349q0 102 -39.5 147t-101.5 45q-70 0 -151 -63v-496q0 -94 15 -116t81 -31v-66h-494z" />
<glyph unicode="o" horiz-adv-x="1075" d="M61 432q0 96 29 178.5t77.5 140t112 99t132.5 61t139 19.5q138 0 245.5 -64t163.5 -168.5t56 -228.5q0 -119 -40 -215.5t-107.5 -156t-151.5 -91t-176 -31.5q-94 0 -173.5 26t-135 70.5t-95 103.5t-58 124t-18.5 133zM354 506q0 -126 25 -228t73 -162.5t111 -60.5 q26 0 47 7.5t43 30t36.5 60t24 102.5t9.5 153q0 214 -52.5 328t-150.5 114q-68 0 -117 -89.5t-49 -254.5z" />
<glyph unicode="p" horiz-adv-x="1120" d="M33 -406q52 5 77.5 10.5t40.5 23.5t18 40t3 70v919q0 82 -20.5 104.5t-98.5 33.5v61q127 21 381 94v-149l141 90q64 39 113 39q88 0 160 -34t117 -90t69.5 -126t24.5 -145q0 -109 -40.5 -205.5t-110.5 -166t-158.5 -117.5t-188.5 -71q-62 0 -127 25v-260q0 -49 3 -71 t21.5 -40t49 -23.5t94.5 -11.5v-65h-569v65zM434 158q32 -30 81 -55t85 -25q84 0 136 96.5t52 255.5q0 73 -14 132.5t-36.5 98t-52.5 64.5t-60.5 37.5t-61.5 11.5q-74 0 -129 -49v-567z" />
<glyph unicode="q" horiz-adv-x="1097" d="M59 412q0 107 46.5 203.5t124.5 165.5t184 109q102 40 214 40h5q80 -6 147 -29q37 -12 68 -12q39 0 104 24l11 -8q-7 -144 -7 -217v-948q0 -49 3 -72.5t19 -40.5t40 -22t76 -11v-65h-562v65q41 5 62 8t43 10t30 15t16 25t9.5 37t1.5 53v303l-164 -70q-118 0 -211 39.5 t-148 104t-83.5 140t-28.5 153.5zM348 481q0 -88 26.5 -162.5t67.5 -120t88 -71t91 -25.5q38 0 73 17v643q-30 39 -67.5 61.5t-71.5 22.5q-36 0 -71.5 -22.5t-66.5 -65t-50 -115t-19 -162.5z" />
<glyph unicode="r" horiz-adv-x="827" d="M57 0v66q87 9 109 32t22 115v449q0 41 -3 62t-17 36t-31.5 21t-58.5 16v57q206 27 373 78v-217h4q129 215 231 215q59 0 98 -37t39 -90t-29 -94.5t-71 -57.5q-15 -5 -28 -5q-21 0 -36 13q-52 43 -94 43q-68 0 -114 -106v-383q0 -35 1 -53.5t7.5 -37t15 -26t30 -14.5 t45.5 -10t68 -6v-66h-561z" />
<glyph unicode="s" horiz-adv-x="784" d="M82 319l59 7q24 -69 61 -128t92 -101t114 -42q49 0 79.5 32t30.5 79q0 49 -32.5 89t-120.5 81q-30 15 -45.5 23t-48 27t-51 34t-44 40.5t-39.5 50t-24.5 58.5t-10.5 70q0 124 93.5 207t250.5 84q110 0 197 -37q13 -32 29 -113t20 -121l-61 -18q-44 101 -96.5 155 t-120.5 54q-41 0 -73 -31.5t-32 -79.5q0 -47 36.5 -84t115.5 -73q69 -30 114.5 -56t85 -61.5t58 -81.5t18.5 -104q0 -96 -56.5 -167.5t-138 -104t-171.5 -32.5q-76 0 -148.5 22t-109.5 48q-10 27 -20.5 115.5t-10.5 158.5z" />
<glyph unicode="t" horiz-adv-x="694" d="M33 831l57 74h82v150l234 159l28 -14v-295h201q18 -17 15 -51.5t-27 -46.5h-189v-506q0 -178 115 -178q49 0 104 24l21 -71l-168 -78q-58 -23 -82 -23q-252 0 -252 258v574h-129z" />
<glyph unicode="u" horiz-adv-x="1136" d="M57 823v60q40 2 185 14q96 8 196 23q-6 -86 -6 -310v-297q0 -93 40 -136.5t99 -43.5q89 0 146 57v498q0 70 -12 91t-54 30l-63 14v60q56 2 205 14q100 8 186 23v-666q0 -81 15 -105t71 -30l45 -4v-66q-69 -9 -184 -33q-59 -11 -191 -41l-18 15v123q-62 -51 -103 -76 q-91 -62 -176 -62q-127 0 -197.5 77.5t-70.5 213.5v424q0 68 -12 88t-54 31z" />
<glyph unicode="v" horiz-adv-x="952" d="M-16 840v65h505v-65q-70 -15 -84 -34q-6 -8 -6 -22q0 -19 11 -51q152 -411 159 -428q81 206 150 422q11 26 11 46q0 18 -9 29q-19 25 -100 38v65h368v-65q-75 -15 -106 -41t-64 -99q-85 -192 -299 -723h-80q-244 608 -295 728q-28 69 -58.5 94.5t-102.5 40.5z" />
<glyph unicode="w" horiz-adv-x="1398" d="M6 840v65h506v-65q-88 -13 -108 -33q-10 -10 -10 -30q0 -18 9 -44q23 -73 64.5 -211.5t56.5 -187.5h4q32 79 67 170.5t78 208.5t68 182h80q56 -142 234 -565h4q90 278 115 389q6 25 6 43q0 28 -12 42q-20 24 -113 36v65h377v-65q-72 -12 -97.5 -35.5t-58.5 -104.5 q-58 -148 -262 -723h-78q-34 82 -116 276t-124 296q-45 -109 -123 -308.5t-104 -263.5h-78q-47 143 -133 398.5t-113 335.5q-25 74 -50 98t-89 31z" />
<glyph unicode="x" horiz-adv-x="987" d="M14 0v66q84 17 127 42t95 87q39 43 165 213l-180 297q-45 76 -76.5 99.5t-111.5 35.5v65h483v-65q-52 -12 -62.5 -29t11.5 -51l96 -160q32 47 101 160q22 35 9.5 51.5t-71.5 28.5v65h375v-65q-84 -13 -117.5 -29.5t-89.5 -71.5q-27 -29 -162 -207l199 -317 q50 -78 94 -109t113 -40v-66h-510v66q58 10 68 30q3 5 3 12q0 20 -22 54l-102 178q-24 -34 -62.5 -99t-44.5 -75q-18 -29 -18 -49q0 -9 4 -16q12 -22 73 -35v-66h-387z" />
<glyph unicode="y" horiz-adv-x="952" d="M-14 840v65h506v-65q-68 -14 -82 -30q-7 -7 -7 -23q0 -17 9 -44l153 -452q71 174 154 436q8 23 8 41q0 21 -11 34q-21 25 -95 38v65h368v-65q-73 -12 -102 -38t-68 -110q-18 -38 -43.5 -97t-48.5 -115t-66.5 -161.5t-78.5 -189.5q-146 -350 -215 -575q-17 -56 -76 -56 q-47 0 -96.5 39.5t-49.5 91.5q0 24 12.5 40.5t45.5 37.5q62 33 99.5 66.5t66.5 81.5q33 61 39 84q5 16 5 34q0 29 -12 64q-170 472 -258 676q-29 68 -58 92.5t-99 34.5z" />
<glyph unicode="z" horiz-adv-x="911" d="M49 33q159 254 461 784h-107q-102 0 -151.5 -29t-93.5 -116l-35 -68l-62 27q49 170 82 317h45q12 -24 39 -34q24 -9 75 -9h11h502l19 -28q-70 -119 -143 -246t-164.5 -289t-143.5 -252h131q111 0 172.5 33t118.5 131l35 57l59 -28q-14 -41 -35 -105.5t-35.5 -107 t-25.5 -70.5h-727z" />
<glyph unicode="{" horiz-adv-x="731" d="M115 592q52 4 88 17.5t54.5 29.5t28.5 41.5t11.5 42t1.5 43.5q0 65 -5.5 199t-4.5 196q0 293 348 293v-80q-180 -16 -180 -196q0 -62 12 -195t12 -186q0 -202 -186 -238v-8q96 -19 141 -83t45 -155q0 -53 -12.5 -184.5t-11.5 -189.5q0 -91 36.5 -142t143.5 -61v-80 q-54 0 -99 6t-93 24t-80.5 48.5t-54 83.5t-21.5 125q0 56 5.5 191.5t4.5 209.5q0 25 -2 42t-12 42.5t-28 42t-54 30.5t-86 17z" />
<glyph unicode="|" horiz-adv-x="552" d="M190 -512v2048h172v-2048h-172z" />
<glyph unicode="}" horiz-adv-x="731" d="M96 -268q56 6 93.5 25t57 48t27 60.5t7.5 71.5q0 49 -13.5 171.5t-13.5 196.5q0 209 186 246v8q-97 19 -141.5 82.5t-44.5 155.5q0 72 13.5 200.5t13.5 186.5q0 37 -7.5 65.5t-26 57t-57 47t-94.5 24.5v76q55 0 99 -5.5t92.5 -23t81 -47.5t54 -83.5t21.5 -125.5 q0 -66 -6 -196t-6 -187q0 -28 1 -44t6 -41t17 -40.5t31.5 -31.5t52.5 -25t78 -12v-74q-52 -4 -88.5 -18t-55 -30.5t-28.5 -44t-12 -47.5t-2 -52q0 -58 6 -190.5t6 -198.5q0 -281 -348 -281v76z" />
<glyph unicode="~" horiz-adv-x="1181" d="M106 444q106 209 287 209q101 0 219 -67q130 -74 211 -74q100 0 166 147l94 -59q-85 -219 -272 -219q-15 0 -30.5 1.5t-28 3.5t-29 7t-26.5 7.5t-26.5 10t-24 10t-25 11.5t-22.5 11.5t-23 12.5t-21 11q-96 57 -170 57q-59 0 -103.5 -37.5t-84.5 -113.5z" />
<glyph unicode="&#xa1;" horiz-adv-x="583" d="M125 -360q0 36 20 145q48 257 103 678q3 19 46 19t46 -19q57 -435 100 -678q21 -114 21 -145q0 -91 -170 -91q-166 0 -166 91zM135 778q0 70 44.5 115t113.5 45q65 0 109 -45t44 -115t-44.5 -116t-110.5 -46q-68 0 -112 46t-44 116z" />
<glyph unicode="&#xa2;" d="M94 612q0 114 53 212t152 167q118 81 252 101v168h82v-160q14 2 35 2q49 0 106 -12.5t90 -34.5q31 -22 31 -62q0 -39 -29 -71.5t-51 -32.5q-15 0 -37 22q-79 88 -145 99v-641q150 3 260 102l37 -53q-58 -84 -134.5 -140.5t-162.5 -70.5v-197h-82v191q-106 4 -194 40 t-144.5 93.5t-87.5 129t-31 148.5zM334 711q0 -141 62 -222t155 -106v633q-36 -3 -72 -21.5t-69.5 -53t-54.5 -94.5t-21 -136z" />
<glyph unicode="&#xa3;" d="M37 84q7 25 29 57.5t56 73t46 57.5q80 104 80 230q0 50 -6 90h-193v94h178q-16 118 -16 170q0 89 47.5 184t147.5 166q125 89 237 94q69 0 120.5 -23t80.5 -54q36 -43 8 -95q-19 -29 -53 -55q-34 -17 -68 6q-2 2 -23 17.5t-26 19t-24 17t-27 17.5t-24.5 13t-27.5 12 t-25.5 6t-27.5 3q-44 0 -65 -32t-21 -99q0 -34 7 -81t15 -84.5t22 -101t22 -100.5h321v-94h-313q2 -10 2 -31q0 -91 -68 -173t-161 -132q129 3 229 -37q68 -29 103.5 -43.5t90.5 -30.5t89 -16q78 0 78 49q0 46 -15 80q-9 25 6 49q45 58 82 58q25 0 39.5 -25t14.5 -59 q0 -71 -53 -141t-124 -122q-104 -73 -209 -73q-34 0 -76.5 13t-70.5 27t-79 41.5t-70 36.5q-83 46 -138 46q-23 0 -41 -22t-26 -58q-9 -35 -33 -35q-29 0 -44.5 23.5t-2.5 66.5z" />
<glyph unicode="&#xa4;" d="M37 279l145 137q-43 46 -65.5 113t-22.5 137q0 151 88 249l-145 138l100 100l139 -154q87 76 224 76h2q133 0 223 -76l137 154l103 -100l-146 -138q88 -98 88 -249q0 -70 -22.5 -137t-65.5 -113l146 -137l-103 -101l-139 152q-89 -74 -223 -74q-136 0 -226 76l-137 -154z M270 666q0 -122 65 -198.5t167 -76.5t165.5 76t63.5 199q0 118 -64.5 196t-166.5 78q-99 0 -164.5 -78.5t-65.5 -195.5z" />
<glyph unicode="&#xa5;" d="M12 1206v70h506v-70l-49 -10q-36 -6 -44 -20.5t3 -45.5q116 -330 137 -385q120 254 154 347q20 49 13 74t-52 32l-53 8v70h374v-70q-70 -9 -101 -33t-79 -106q-62 -105 -190 -373h256v-86h-271v-57v-76h273v-86h-273v-110q0 -50 1.5 -79t9.5 -54.5t18 -37t34 -20.5 t49.5 -12t72.5 -6v-70h-621v70q45 3 70 6t47.5 12.5t32 20.5t16.5 37t8.5 55t1.5 80v108h-274v86h274v51v82h-274v86h250q-51 137 -148 359q-21 48 -38.5 76.5t-39 44t-40.5 21.5t-54 11z" />
<glyph unicode="&#xa6;" horiz-adv-x="552" d="M190 -358v716h172v-716h-172zM190 666v716h172v-716h-172z" />
<glyph unicode="&#xa7;" horiz-adv-x="987" d="M88 725q0 114 48.5 215.5t123.5 179.5q77 80 148 127.5t161 69.5q40 0 81 -16t67 -39q24 -24 24 -54q-2 -42 -55 -88q-20 -12 -43 6q-25 19 -71 37.5t-99 18.5q-48 0 -79.5 -23t-31.5 -55q0 -61 78 -123q36 -30 116.5 -94t111.5 -90q48 -39 83 -74.5t66.5 -82t47 -102.5 t14.5 -120q-2 -188 -207 -430q-137 -155 -305 -201q-35 0 -78 11.5t-70 33.5q-39 31 -39 62q0 17 23 49.5t39 42.5q27 19 49 4q72 -56 172 -56q47 0 81 25t34 61t-26 70.5t-99 99.5q-36 37 -116 112.5t-112 109.5q-60 58 -98.5 141t-38.5 172zM205 850q0 -78 40.5 -153.5 t141.5 -168.5q207 -191 250 -252q43 -67 49 -157h4q60 100 60 194q2 76 -39 151t-144 157q-138 111 -215 188q-95 99 -90 201l-4 4q-53 -79 -53 -164z" />
<glyph unicode="&#xa8;" horiz-adv-x="819" d="M61 1198q0 58 41 97.5t99 39.5q57 0 97 -39.5t40 -97.5q0 -56 -40.5 -95.5t-98.5 -39.5q-56 0 -97 40t-41 95zM481 1198q0 58 41 97.5t99 39.5q57 0 97 -39.5t40 -97.5q0 -56 -41 -95.5t-99 -39.5q-56 0 -96.5 40t-40.5 95z" />
<glyph unicode="&#xa9;" horiz-adv-x="1431" d="M84 664q0 172 81 315.5t226.5 228t325.5 84.5q177 0 322.5 -84.5t227 -228.5t81.5 -315q0 -127 -48 -242t-131 -199t-201.5 -134t-252.5 -50q-179 0 -324.5 84.5t-226 227.5t-80.5 313zM193 666q0 -151 66.5 -276t187 -198t270.5 -73t270.5 73t187 198t66.5 276 q0 232 -149 389t-377 157q-112 0 -209.5 -42.5t-165.5 -115.5t-107.5 -173.5t-39.5 -214.5zM360 657q0 112 57.5 197.5t149 127.5t199.5 42q125 0 217 -37q8 -104 23 -182l-54 -12q-31 82 -73.5 123.5t-118.5 41.5q-98 0 -156.5 -80t-58.5 -204q0 -131 65 -215t158 -84 q73 0 121 40t84 120l55 -13q-7 -21 -24.5 -88t-26.5 -88q-126 -41 -225 -41q-95 0 -172 31t-123.5 81.5t-71.5 112.5t-25 127z" />
<glyph unicode="&#xaa;" horiz-adv-x="686" d="M57 719q0 95 113 135q12 5 98 34t111 46v33q0 43 -22.5 68.5t-57.5 25.5q-58 0 -90 -109q-11 -41 -53 -41q-32 0 -60 21t-28 51q0 31 47 64q103 69 231 92q88 0 145.5 -46t57.5 -139v-217q0 -71 43 -71q15 0 47 12l12 -49l-151 -74q-83 0 -117 76q-102 -76 -152 -76 q-73 0 -123.5 50t-50.5 114zM244 754q0 -43 25 -65.5t53 -22.5q27 0 57 20v186q-2 -1 -33 -15.5t-45 -22.5q-57 -26 -57 -80z" />
<glyph unicode="&#xab;" horiz-adv-x="933" d="M96 461q166 175 324 391l65 -39l-170 -352l170 -357l-65 -38q-141 196 -324 395zM455 461q156 165 325 391l64 -39l-170 -352l170 -357l-64 -38q-157 205 -325 395z" />
<glyph unicode="&#xac;" horiz-adv-x="1181" d="M96 635v133h991v-561h-151v428h-840z" />
<glyph unicode="&#xad;" horiz-adv-x="700" d="M84 397l31 146h503l-30 -146h-504z" />
<glyph unicode="&#xae;" horiz-adv-x="653" d="M57 1075q0 112 79 193.5t194 81.5t193.5 -81.5t78.5 -193.5q0 -108 -79 -188t-195 -80q-115 0 -193 77.5t-78 190.5zM117 1075q0 -92 61 -155.5t152 -63.5q92 0 152.5 63t60.5 156q0 96 -61 160.5t-154 64.5q-92 0 -151.5 -64.5t-59.5 -160.5zM197 938v31q30 2 35.5 7 t5.5 34v143q0 29 -5.5 34t-33.5 7v31h145q102 0 102 -76q0 -51 -57 -72q26 -46 66 -92q16 -16 32 -24l-8 -25q-38 0 -61 9t-41 34q-30 41 -41 61q-10 15 -27 15h-8v-45q0 -28 6 -33.5t33 -7.5v-31h-143zM301 1092h18q20 0 37 10q23 16 23 41q0 28 -16 39.5t-35 11.5 q-16 0 -21.5 -5t-5.5 -22v-75z" />
<glyph unicode="&#xaf;" horiz-adv-x="819" d="M154 1110v147h512v-147h-512z" />
<glyph unicode="&#xb0;" horiz-adv-x="677" d="M59 1096q0 120 81 193t200 73q114 0 195 -73.5t81 -192.5q0 -125 -80 -198t-198 -73q-119 0 -199 73t-80 198zM188 1096q0 -77 43 -129t109 -52q65 0 106 50t41 122q0 85 -40.5 136t-108.5 51q-64 0 -107 -50.5t-43 -127.5z" />
<glyph unicode="&#xb1;" horiz-adv-x="1181" d="M96 0v133h989v-133h-989zM96 623v133h420v370h152v-370h417v-133h-417v-396h-152v396h-420z" />
<glyph unicode="&#xb2;" horiz-adv-x="712" d="M70 1350l71 100q35 44 93 70t116 26q110 0 181 -61t71 -164q0 -71 -49 -131t-174 -160l-88 -69v-5h184q54 0 76 13.5t53 66.5l51 -14q-25 -77 -55 -207h-528v53q325 244 325 408q0 64 -31 99.5t-87 35.5q-86 0 -166 -100z" />
<glyph unicode="&#xb3;" horiz-adv-x="712" d="M86 911q15 39 53 64q21 12 45 -6q99 -86 154 -86q37 0 63.5 33t26.5 100q0 72 -38 106.5t-97 34.5q-48 0 -82 -12l-14 59q176 57 176 144q0 35 -25 57t-65 22q-74 0 -144 -79l-37 36l70 93q30 30 79 50.5t105 20.5h2q99 0 157 -48t58 -114q0 -24 -11 -47t-27 -36 q-39 -31 -109 -64v-4q97 -13 148 -56t51 -110q0 -52 -28.5 -98t-72 -76.5t-95.5 -53t-97.5 -32.5t-79.5 -10q-43 0 -87.5 14.5t-64.5 30.5q-28 28 -14 67z" />
<glyph unicode="&#xb4;" horiz-adv-x="819" d="M354 1030q98 328 101 336q15 11 106 21t117 4l12 -23l-272 -367z" />
<glyph unicode="&#xb5;" horiz-adv-x="1101" d="M133 883l262 49q6 -59 6 -234v-352q0 -105 44 -156t104 -51q70 0 129 66v678l260 49v-674q0 -71 22.5 -102t53.5 -31q34 0 63 16l25 -57q-33 -45 -95 -77t-139 -32q-69 0 -118.5 34.5t-65.5 107.5h-4q-120 -142 -229 -142q-105 0 -160 88h-6v-30q0 -104 25 -266t48 -238 l-30 -29q-45 5 -102 29.5t-87 56.5q-3 20 -3 100.5t1.5 225t1.5 229.5v535q0 140 -6 207z" />
<glyph unicode="&#xb6;" horiz-adv-x="1062" d="M80 649q0 103 40.5 192.5t110.5 153.5q67 59 155 94t175 35h410l10 -26l-63 -66l-177 -20v-963q0 -126 -36 -218t-115 -169q-52 -52 -114 -80t-85 -28q-95 0 -151 49q-28 28 -25 63q4 19 19.5 40t27.5 30q24 18 49 6q68 -49 146 -49q33 0 58.5 11.5t50 43.5t37.5 99 t13 167v277l-143 -64q-16 -4 -35 -4q-51 0 -111.5 30t-116.5 82.5t-93 135.5t-37 178z" />
<glyph unicode="&#xb7;" horiz-adv-x="520" d="M106 481q0 67 44.5 111.5t109.5 44.5q66 0 111 -44.5t45 -111.5q0 -71 -45 -115t-113 -44q-64 0 -108 44t-44 115z" />
<glyph unicode="&#xb8;" horiz-adv-x="819" d="M283 -430q57 27 90 61t33 62q0 32 -46 69q-42 40 -46 72t34 78l76 88h94l-49 -51q-18 -20 -15.5 -37t29.5 -43q80 -80 80 -141q0 -68 -66 -121.5t-188 -87.5z" />
<glyph unicode="&#xb9;" horiz-adv-x="712" d="M143 815v59q78 6 101.5 30.5t23.5 103.5v315q0 61 -11 78.5t-60 21.5l-52 4v60q154 13 324 59v-538q0 -79 23 -103.5t100 -30.5v-59h-449z" />
<glyph unicode="&#xba;" horiz-adv-x="755" d="M53 840q2 91 53 161t125.5 104t155.5 34q141 0 227 -85.5t84 -205.5q-3 -139 -94.5 -217t-226.5 -78q-155 0 -241 84.5t-83 202.5zM266 866q-2 -105 32.5 -174t88.5 -69q97 0 102 192q3 120 -29.5 187t-94.5 67q-39 0 -67.5 -50t-31.5 -153z" />
<glyph unicode="&#xbb;" horiz-adv-x="933" d="M98 102l170 357l-170 352l64 41q178 -230 325 -393q-170 -182 -325 -393zM449 102l169 357l-169 352l65 41q155 -212 324 -393q-179 -191 -324 -393z" />
<glyph unicode="&#xbc;" horiz-adv-x="1605" d="M156 569v60q78 8 101.5 32t23.5 101v315q0 61 -11.5 79t-60.5 22l-51 4v59q152 13 323 59v-538q0 -79 23 -103t100 -30v-60h-448zM356 -23l830 1350l80 -55l-832 -1354zM834 199v57q225 302 378 477h125v-442h113v-92h-113v-39q0 -54 21 -76.5t82 -28.5v-55h-412v55 q78 6 100.5 27t22.5 78v39h-317zM958 291h193v264h-2q-83 -108 -191 -264z" />
<glyph unicode="&#xbd;" horiz-adv-x="1615" d="M137 569v60q78 8 101.5 32t23.5 101v315q0 61 -11.5 79t-60.5 22l-51 4v59q154 13 324 59v-538q0 -79 23 -103t100 -30v-60h-449zM315 -23l830 1350l80 -55l-832 -1354zM899 537l70 100q35 43 94 69.5t117 26.5q110 0 180.5 -61t69.5 -164q0 -71 -49.5 -132t-174.5 -161 l-88 -70v-4h185q54 0 77 14t52 66l53 -14q-25 -77 -55 -207h-529v53q58 44 108.5 88t103 100t83.5 114t31 108q0 64 -31.5 99.5t-87.5 35.5q-92 0 -166 -102z" />
<glyph unicode="&#xbe;" horiz-adv-x="1615" d="M154 666q12 37 51 63q23 12 47 -6q99 -86 154 -86q37 0 63.5 33t26.5 100q0 72 -39 107.5t-99 35.5q-39 0 -79 -12l-15 60q176 58 176 141q0 35 -25.5 57.5t-64.5 22.5q-72 0 -143 -80l-37 37l68 90q30 30 79.5 50.5t106.5 20.5h2q99 0 157 -47.5t58 -111.5 q0 -52 -41 -84q-35 -27 -106 -62v-4q96 -13 147 -56.5t51 -111.5q0 -65 -42.5 -119t-104.5 -85.5t-122.5 -48.5t-105.5 -17q-42 0 -87 15t-62 30q-29 29 -14 68zM358 -23l828 1350l82 -55l-832 -1354zM831 199v57q219 295 379 477h125v-442h113v-92h-113v-41q0 -53 21 -75 t82 -28v-55h-414v55q80 6 102.5 26.5t22.5 76.5v41h-318zM956 291h193v264h-4q-119 -160 -189 -264z" />
<glyph unicode="&#xbf;" horiz-adv-x="817" d="M76 -90q0 69 24 118t97 99q11 8 48 32.5t58 40.5t48.5 39.5t41 45t13.5 41.5q0 54 -56 123l45 49q43 -17 86 -42.5t83.5 -60.5t65.5 -80t25 -92q0 -62 -44.5 -121.5t-153.5 -128.5q-17 -11 -48 -30t-47.5 -29.5t-40 -26t-36 -25.5t-25.5 -22t-18.5 -22t-5.5 -19 q0 -75 92 -75q60 0 120.5 35t101.5 69.5t54 34.5q37 0 78 -44t41 -98q0 -27 -10.5 -44t-36.5 -42q-46 -40 -115 -63t-115 -23h-2q-87 0 -172.5 50t-140.5 134.5t-55 176.5zM266 778q0 70 45.5 115t114.5 45q65 0 109.5 -45t44.5 -115t-45 -116t-111 -46q-68 0 -113 46 t-45 116z" />
<glyph unicode="&#xc0;" horiz-adv-x="1445" d="M37 0v72q102 12 140 47t89 164l420 1052l105 27q373 -1020 391 -1067q37 -96 62 -136.5t59.5 -59.5t103.5 -27v-72h-586v72q89 13 107.5 39.5t-8.5 93.5q-35 106 -82 231h-394q-38 -104 -73 -219q-28 -73 -5.5 -102.5t130.5 -42.5v-72h-459zM401 1544q6 34 42 93t63 77 q60 -42 177.5 -126t176.5 -126l-29 -61l-423 119zM479 545h320l-152 444h-6q-25 -66 -52.5 -141.5t-59.5 -164t-50 -138.5z" />
<glyph unicode="&#xc1;" horiz-adv-x="1445" d="M37 0v72q102 12 140 47t89 164l420 1052l105 27q373 -1020 391 -1067q37 -96 62 -136.5t59.5 -59.5t103.5 -27v-72h-586v72q89 13 107.5 39.5t-8.5 93.5q-35 106 -82 231h-394q-38 -104 -73 -219q-28 -73 -5.5 -102.5t130.5 -42.5v-72h-459zM479 545h320l-152 444h-6 q-25 -66 -52.5 -141.5t-59.5 -164t-50 -138.5zM616 1456q297 210 355 250q28 -11 64 -65.5t40 -94.5l-8 -24l-422 -123z" />
<glyph unicode="&#xc2;" horiz-adv-x="1445" d="M37 0v72q102 12 140 47t89 164l420 1052l105 27q373 -1020 391 -1067q37 -96 62 -136.5t59.5 -59.5t103.5 -27v-72h-586v72q89 13 107.5 39.5t-8.5 93.5q-35 106 -82 231h-394q-38 -104 -73 -219q-28 -73 -5.5 -102.5t130.5 -42.5v-72h-459zM446 1454q133 107 271 252h63 q100 -108 271 -252l-33 -53q-67 26 -270 125q-180 -90 -269 -125zM479 545h320l-152 444h-6q-25 -66 -52.5 -141.5t-59.5 -164t-50 -138.5z" />
<glyph unicode="&#xc3;" horiz-adv-x="1445" d="M37 0v72q102 12 140 47t89 164l420 1052l105 27q373 -1020 391 -1067q37 -96 62 -136.5t59.5 -59.5t103.5 -27v-72h-586v72q89 13 107.5 39.5t-8.5 93.5q-35 106 -82 231h-394q-38 -104 -73 -219q-28 -73 -5.5 -102.5t130.5 -42.5v-72h-459zM446 1442q69 192 191 192 q45 0 129 -37q80 -34 125 -34q53 0 100 88l62 -33q-65 -201 -191 -201q-38 0 -143 43q-64 31 -109 31q-55 0 -102 -90zM479 545h320l-152 444h-6q-25 -66 -52.5 -141.5t-59.5 -164t-50 -138.5z" />
<glyph unicode="&#xc4;" horiz-adv-x="1445" d="M37 0l2 72q71 8 106 25.5t60.5 56t62.5 129.5l418 1052l105 27q42 -116 122 -337t144.5 -397t124.5 -333q51 -135 89 -173t136 -50v-72h-586v72q89 13 107.5 39.5t-8.5 93.5q-35 106 -82 231h-394q-38 -104 -73 -219q-27 -73 -5 -102.5t130 -42.5v-72h-459zM383 1559 q0 58 40.5 97.5t98.5 39.5q57 0 97 -39.5t40 -97.5q0 -56 -40.5 -96t-98.5 -40q-56 0 -96.5 40.5t-40.5 95.5zM479 545h320l-152 444h-6q-25 -66 -52.5 -141.5t-59.5 -164t-50 -138.5zM813 1559q0 58 40.5 97.5t98.5 39.5q57 0 97.5 -39.5t40.5 -97.5q0 -56 -41 -96t-99 -40 q-56 0 -96.5 40.5t-40.5 95.5z" />
<glyph unicode="&#xc5;" horiz-adv-x="1445" d="M37 0v72q102 12 140 47t89 164l420 1052l105 27q41 -111 178 -488t215 -579q36 -95 61.5 -136.5t59.5 -60t102 -26.5v-72h-586v72q89 13 107.5 39.5t-6.5 93.5q-7 18 -36 101t-48 130h-394q-38 -104 -73 -219q-28 -73 -5.5 -102.5t130.5 -42.5v-72h-459zM479 545h322 l-154 444h-6q-25 -66 -52.5 -141.5t-59.5 -164t-50 -138.5zM543 1585q0 81 58 131.5t136 50.5h4q75 0 134 -50.5t59 -131.5q0 -83 -59.5 -134.5t-137.5 -51.5q-77 0 -135.5 51.5t-58.5 134.5zM645 1585q0 -47 27.5 -77.5t68.5 -30.5t65.5 30t24.5 78q0 45 -25 75t-67 30 q-40 0 -67 -30.5t-27 -74.5z" />
<glyph unicode="&#xc6;" horiz-adv-x="1806" d="M-29 0v72q98 12 147.5 49.5t106.5 140.5q198 361 463 891q25 49 18.5 68.5t-53.5 25.5l-121 17l-2 67h1133q5 -87 23 -301l-74 -10q-35 129 -78 172q-46 49 -209 49h-106q-57 0 -69.5 -10.5t-12.5 -61.5v-475h133q74 0 110 3.5t63.5 20.5t38 45t19.5 83h76v-414h-76 q-6 40 -12 65t-18.5 44.5t-25.5 29t-41 15.5t-55.5 7.5t-78.5 2.5h-133v-311q0 -90 10 -127t41 -52q40 -16 184 -16q165 0 223 66q77 81 123 202l68 -18q-8 -53 -34.5 -169t-41.5 -171h-1026v72q45 4 71.5 8t49.5 15t33.5 24t18 39.5t9.5 57t2 81.5v299h-344 q-79 -160 -166 -358q-39 -89 -18 -120t133 -46v-72h-502zM569 696h299v529q-21 0 -45 -6q-17 -35 -106.5 -217t-147.5 -306z" />
<glyph unicode="&#xc7;" horiz-adv-x="1384" d="M86 649q-1 210 99 371.5t286.5 251.5t433.5 90q59 0 121.5 -7t100.5 -14.5t86 -18.5t57 -13q36 -251 45 -334l-76 -19q-53 173 -145.5 244.5t-233.5 71.5q-140 0 -246 -80t-159.5 -211t-53.5 -289q0 -282 128 -455.5t331 -173.5q260 0 416 316l76 -29q-62 -228 -113 -323 q-195 -50 -340 -54l-22 -24q-17 -19 -13.5 -36t31.5 -48q78 -91 78 -146q0 -63 -64 -119t-192 -98l-35 64q59 30 92 63.5t33 59.5q0 7 -2.5 14.5t-4.5 13t-8.5 14t-8.5 11t-11 11.5l-8 9q-40 43 -45.5 70.5t20.5 65.5l60 73q-122 5 -227 35t-181.5 79.5t-135.5 113.5 t-95.5 139t-54.5 152.5t-19 158.5z" />
<glyph unicode="&#xc8;" horiz-adv-x="1189" d="M53 0v72q49 4 75.5 7.5t52 12.5t36 20t19 34.5t10.5 51t2 74.5v787q0 47 -1.5 76t-9.5 52.5t-17 34.5t-31 19.5t-44 12t-63 6.5v71h965l4 -64t8 -119t8 -124l-76 -10q-31 125 -82 176q-26 28 -72 39.5t-132 11.5h-99q-58 0 -71 -11t-13 -61v-434h137q48 0 75.5 1.5t54 7 t39.5 14.5t25.5 27.5t19.5 42t14 61.5h74v-412h-74q-7 39 -13.5 63t-19.5 42.5t-25.5 27.5t-39.5 15t-54 7t-76 1h-137v-354q0 -79 10 -117.5t39 -52.5q49 -21 185 -21q84 0 137.5 14.5t87.5 51.5q60 66 115 200l73 -14q-10 -64 -33.5 -176t-37.5 -164h-1045zM279 1544 q5 34 40 93t64 77q58 -42 175.5 -126t176.5 -126l-28 -61l-424 119z" />
<glyph unicode="&#xc9;" horiz-adv-x="1189" d="M53 0v72q49 4 75.5 7.5t52 12.5t36 20t19 34.5t10.5 51t2 74.5v787q0 47 -1.5 76t-9.5 52.5t-17 34.5t-31 19.5t-44 12t-63 6.5v71h965l4 -64t8 -119t8 -124l-76 -10q-31 125 -82 176q-26 28 -72 39.5t-132 11.5h-99q-58 0 -71 -11t-13 -61v-434h137q48 0 75.5 1.5t54 7 t39.5 14.5t25.5 27.5t19.5 42t14 61.5h74v-412h-74q-7 39 -13.5 63t-19.5 42.5t-25.5 27.5t-39.5 15t-54 7t-76 1h-137v-354q0 -79 10 -117.5t39 -52.5q49 -21 185 -21q84 0 137.5 14.5t87.5 51.5q60 66 115 200l73 -14q-10 -64 -33.5 -176t-37.5 -164h-1045zM473 1456 q168 120 354 250q28 -11 64.5 -65t40.5 -95l-8 -22l-422 -125z" />
<glyph unicode="&#xca;" horiz-adv-x="1189" d="M53 0v72q49 4 75.5 7.5t52 12.5t36 20t19 34.5t10.5 51t2 74.5v787q0 47 -1.5 76t-9.5 52.5t-17 34.5t-31 19.5t-44 12t-63 6.5v71h965l4 -64t8 -119t8 -124l-76 -10q-31 125 -82 176q-26 28 -72 39.5t-132 11.5h-99q-58 0 -71 -11t-13 -61v-434h137q48 0 75.5 1.5t54 7 t39.5 14.5t25.5 27.5t19.5 42t14 61.5h74v-412h-74q-7 39 -13.5 63t-19.5 42.5t-25.5 27.5t-39.5 15t-54 7t-76 1h-137v-354q0 -79 10 -117.5t39 -52.5q49 -21 185 -21q84 0 137.5 14.5t87.5 51.5q60 66 115 200l73 -14q-10 -64 -33.5 -176t-37.5 -164h-1045zM301 1454 q101 83 270 252h62q122 -128 272 -252l-35 -53q-42 16 -87 37t-98.5 47.5t-82.5 40.5q-15 -7 -79 -38.5t-106.5 -50.5t-84.5 -36z" />
<glyph unicode="&#xcb;" horiz-adv-x="1189" d="M53 0v72q49 4 75.5 7.5t52 12.5t36 20t19 34.5t10.5 51t2 74.5v787q0 47 -1.5 76t-9.5 52.5t-17 34.5t-31 19.5t-44 12t-63 6.5v71h965l4 -64t8 -119t8 -124l-76 -10q-31 125 -82 176q-26 28 -72 39.5t-132 11.5h-99q-58 0 -71 -11t-13 -61v-434h137q48 0 75.5 1.5t54 7 t39.5 14.5t25.5 27.5t19.5 42t14 61.5h74v-412h-74q-7 39 -13.5 63t-19.5 42.5t-25.5 27.5t-39.5 15t-54 7t-76 1h-137v-354q0 -79 10 -117.5t39 -52.5q49 -21 185 -21q84 0 137.5 14.5t87.5 51.5q60 66 115 200l73 -14q-10 -64 -33.5 -176t-37.5 -164h-1045zM248 1559 q0 58 40.5 97.5t98.5 39.5q59 0 98 -39t39 -98q0 -56 -40 -96t-99 -40q-56 0 -96.5 40.5t-40.5 95.5zM678 1559q0 58 40.5 97.5t98.5 39.5q59 0 98 -39t39 -98q0 -56 -40 -96t-99 -40q-56 0 -96.5 40.5t-40.5 95.5z" />
<glyph unicode="&#xcc;" horiz-adv-x="774" d="M70 1544q6 35 41.5 93.5t62.5 76.5q60 -42 177 -126t177 -126l-28 -61l-424 119zM76 0v72q43 4 66.5 7.5t46 12.5t32 20.5t17 35t9 51t1.5 73.5v785q0 47 -1.5 75.5t-9.5 52t-17 35t-31.5 20.5t-46 12.5t-66.5 7.5v71h616v-71q-43 -4 -66.5 -7.5t-45.5 -12.5t-31 -20 t-16.5 -35.5t-9 -52t-1.5 -75.5v-785q0 -47 1.5 -74t9 -51t16.5 -35t31 -20t45.5 -12.5t66.5 -7.5v-72h-616z" />
<glyph unicode="&#xcd;" horiz-adv-x="774" d="M76 0v72q43 4 66.5 7.5t46 12.5t32 20.5t17 35t9 51t1.5 73.5v785q0 47 -1.5 75.5t-9.5 52t-17 35t-31.5 20.5t-46 12.5t-66.5 7.5v71h616v-71q-43 -4 -66.5 -7.5t-45.5 -12.5t-31 -20t-16.5 -35.5t-9 -52t-1.5 -75.5v-785q0 -47 1.5 -74t9 -51t16.5 -35t31 -20 t45.5 -12.5t66.5 -7.5v-72h-616zM252 1456q41 29 113 80t131 93t110 77q28 -11 64.5 -66t40.5 -94l-9 -24l-421 -123z" />
<glyph unicode="&#xce;" horiz-adv-x="774" d="M76 0v72q43 4 66.5 7.5t46 12.5t32 20.5t17 35t9 51t1.5 73.5v785q0 47 -1.5 75.5t-9.5 52t-17 35t-31.5 20.5t-46 12.5t-66.5 7.5v71h616v-71q-43 -4 -66.5 -7.5t-45.5 -12.5t-31 -20t-16.5 -35.5t-9 -52t-1.5 -75.5v-785q0 -47 1.5 -74t9 -51t16.5 -35t31 -20 t45.5 -12.5t66.5 -7.5v-72h-616zM84 1454q129 104 270 252h64q104 -112 270 -252l-33 -53q-67 26 -270 125q-183 -92 -268 -125z" />
<glyph unicode="&#xcf;" horiz-adv-x="774" d="M33 1559q0 58 40.5 97.5t98.5 39.5q57 0 97 -39.5t40 -97.5q0 -56 -40.5 -96t-98.5 -40q-56 0 -96.5 40.5t-40.5 95.5zM76 0v72q42 4 66 7.5t46 12.5t31.5 20.5t17.5 34.5t9.5 51t1.5 74v785q0 47 -1.5 75.5t-9.5 52t-17.5 35t-32 20.5t-45.5 12.5t-66 7.5v71h616v-71 q-43 -4 -66 -7.5t-44.5 -12.5t-30.5 -20.5t-16.5 -35.5t-9 -51.5t-1.5 -75.5v-785q0 -47 1.5 -74t8.5 -51t16.5 -35t31 -20t45 -12.5t65.5 -7.5v-72h-616zM463 1559q0 58 40 97.5t95 39.5h4q57 0 97 -39.5t40 -97.5q0 -56 -40.5 -96t-98.5 -40q-56 0 -96.5 40.5t-40.5 95.5z " />
<glyph unicode="&#xd0;" horiz-adv-x="1556" d="M78 645v103h192v303q0 57 -3.5 89t-12 56.5t-29 36.5t-46.5 18t-73 11v69h615q385 0 571 -180q82 -76 130 -186t48 -244q0 -358 -253 -549q-229 -172 -609 -172h-518v70q44 4 70 8.5t48.5 15t33 22.5t17.5 37t9 53t2 75v364h-192zM545 281q0 -56 5 -88t22.5 -57t50 -34.5 t86.5 -9.5q198 0 326 161t128 427q0 298 -147 448q-112 115 -322 115q-105 0 -131 -29q-18 -16 -18 -100v-366h289v-103h-289v-364z" />
<glyph unicode="&#xd1;" horiz-adv-x="1515" d="M33 1262v69h379l784 -897h6v359q0 180 -16 337q-8 68 -50 97t-153 35v69h500v-69q-85 -5 -121 -32.5t-43 -96.5q-19 -193 -19 -340v-813h-98l-852 1019h-6v-458q0 -169 16 -332q8 -72 47.5 -101.5t149.5 -35.5v-72h-502v72q86 6 125 35.5t45 93.5q21 184 21 340v428 q0 106 -6.5 145t-34.5 74q-29 36 -67 52t-105 22zM477 1442q72 192 191 192q43 0 129 -37q80 -34 123 -34q54 0 102 86l61 -31q-36 -112 -83.5 -156.5t-106.5 -44.5q-38 0 -143 43q-64 31 -109 31q-55 0 -102 -90z" />
<glyph unicode="&#xd2;" horiz-adv-x="1568" d="M86 662q0 106 29.5 207.5t90 190.5t145 156t202 105.5t254.5 38.5q139 0 263 -50t216 -138t145.5 -216t53.5 -276q0 -162 -55.5 -297t-151.5 -225t-224.5 -139.5t-273.5 -49.5q-201 0 -360.5 91.5t-246.5 249.5t-87 352zM401 702q0 -178 48.5 -323.5t144.5 -234.5 t223 -89q153 0 252.5 148t99.5 420q0 302 -110.5 476.5t-292.5 174.5q-158 0 -261.5 -156t-103.5 -416zM475 1561q6 34 42 93t63 77q59 -42 176.5 -126t177.5 -126l-29 -62l-424 119z" />
<glyph unicode="&#xd3;" horiz-adv-x="1568" d="M86 662q0 106 29.5 207.5t90 190.5t145 156t202 105.5t254.5 38.5q139 0 263 -50t216 -138t145.5 -216t53.5 -276q0 -162 -55.5 -297t-151.5 -225t-224.5 -139.5t-273.5 -49.5q-201 0 -360.5 91.5t-246.5 249.5t-87 352zM401 702q0 -178 48.5 -323.5t144.5 -234.5 t223 -89q153 0 252.5 148t99.5 420q0 302 -110.5 476.5t-292.5 174.5q-158 0 -261.5 -156t-103.5 -416zM639 1473q268 189 354 249q28 -11 64.5 -65.5t40.5 -93.5l-8 -25l-422 -123z" />
<glyph unicode="&#xd4;" horiz-adv-x="1568" d="M86 662q0 106 29.5 207.5t90 190.5t145 156t202 105.5t254.5 38.5q139 0 263 -50t216 -138t145.5 -216t53.5 -276q0 -162 -55.5 -297t-151.5 -225t-224.5 -139.5t-273.5 -49.5q-201 0 -360.5 91.5t-246.5 249.5t-87 352zM401 702q0 -178 48.5 -323.5t144.5 -234.5 t223 -89q153 0 252.5 148t99.5 420q0 302 -110.5 476.5t-292.5 174.5q-158 0 -261.5 -156t-103.5 -416zM481 1470q133 107 271 252h63q104 -112 270 -252l-32 -53q-72 28 -271 125q-183 -92 -268 -125z" />
<glyph unicode="&#xd5;" horiz-adv-x="1568" d="M86 662q0 106 29.5 207.5t90 190.5t145 156t202 105.5t254.5 38.5q139 0 263 -50t216 -138t145.5 -216t53.5 -276q0 -162 -55.5 -297t-151.5 -225t-224.5 -139.5t-273.5 -49.5q-201 0 -360.5 91.5t-246.5 249.5t-87 352zM401 702q0 -178 48.5 -323.5t144.5 -234.5 t223 -89q153 0 252.5 148t99.5 420q0 302 -110.5 476.5t-292.5 174.5q-158 0 -261.5 -156t-103.5 -416zM496 1458q72 193 188 193q45 0 131 -37q82 -35 123 -35q56 0 100 86l62 -31q-34 -111 -82 -155.5t-107 -44.5q-38 0 -143 43q-62 30 -109 30q-55 0 -102 -90z" />
<glyph unicode="&#xd6;" horiz-adv-x="1568" d="M86 662q0 106 29.5 207.5t90 190.5t145 156t202 105.5t254.5 38.5q139 0 263 -50t215 -138t144.5 -216t53.5 -276q0 -162 -55.5 -297t-151.5 -225t-224 -139.5t-272 -49.5q-201 0 -360.5 91.5t-246.5 249.5t-87 352zM401 702q0 -178 48.5 -323.5t144.5 -234.5t223 -89 q153 0 252.5 148t99.5 420q0 302 -110.5 476.5t-292.5 174.5q-158 0 -261.5 -156t-103.5 -416zM430 1567q0 58 40.5 97.5t98.5 39.5q57 0 97.5 -39.5t40.5 -97.5q0 -56 -41 -95.5t-99 -39.5q-56 0 -96.5 40t-40.5 95zM860 1567q0 58 40.5 97.5t98.5 39.5q57 0 97.5 -39.5 t40.5 -97.5q0 -56 -41 -95.5t-99 -39.5q-56 0 -96.5 40t-40.5 95z" />
<glyph unicode="&#xd7;" horiz-adv-x="1181" d="M119 125l368 379l-368 377l98 104l373 -379l371 383l102 -102l-373 -383l373 -379l-102 -105l-371 381l-373 -381z" />
<glyph unicode="&#xd8;" horiz-adv-x="1579" d="M86 662q0 100 28 198t87 189t142 160.5t203 111t261 41.5q203 0 356 -90l107 155l65 -47l-100 -157q117 -96 187.5 -235t70.5 -302q0 -160 -55 -295t-151 -227t-228 -143.5t-283 -51.5q-199 0 -352 90l-117 -165l-63 53l108 157q-123 94 -194.5 240.5t-71.5 317.5z M389 690q0 -107 26 -215t70 -186l572 829q-53 80 -127 119t-156 39q-163 0 -274 -159t-111 -427zM535 209q47 -73 121 -113.5t157 -40.5q164 0 269.5 150.5t105.5 431.5q0 240 -84 405z" />
<glyph unicode="&#xd9;" horiz-adv-x="1492" d="M59 1260v71h617v-71q-42 -4 -65 -7.5t-45.5 -13t-31.5 -22t-17 -38t-9.5 -57t-1.5 -82.5v-446q0 -233 84 -359t248 -126q180 0 265 132.5t85 393.5v219q0 157 -21 285q-9 57 -53.5 86t-144.5 35v71h512v-71q-156 -8 -172 -121q-19 -120 -19 -285v-223q0 -175 -32.5 -300 t-114.5 -212q-70 -73 -169.5 -111.5t-209.5 -38.5q-228 0 -363 105q-87 69 -128.5 186.5t-41.5 296.5v483q0 51 -1.5 82.5t-9.5 57t-17.5 38t-32 22t-45.5 13t-66 7.5zM467 1544q6 35 41.5 93.5t62.5 76.5q60 -42 177.5 -126t177.5 -126l-29 -61l-424 119z" />
<glyph unicode="&#xda;" horiz-adv-x="1492" d="M59 1260v71h617v-71q-42 -4 -65 -7.5t-45.5 -13t-31.5 -22t-17 -38t-9.5 -57t-1.5 -82.5v-446q0 -233 84 -359t248 -126q180 0 265 132.5t85 393.5v219q0 157 -21 285q-9 57 -53.5 86t-144.5 35v71h512v-71q-156 -8 -172 -121q-19 -120 -19 -285v-223q0 -175 -32.5 -300 t-114.5 -212q-70 -73 -169.5 -111.5t-209.5 -38.5q-228 0 -363 105q-87 69 -128.5 186.5t-41.5 296.5v483q0 51 -1.5 82.5t-9.5 57t-17.5 38t-32 22t-45.5 13t-66 7.5zM653 1456q298 210 355 250q28 -11 64 -65.5t40 -94.5l-8 -24l-422 -123z" />
<glyph unicode="&#xdb;" horiz-adv-x="1492" d="M59 1260v71h617v-71q-42 -4 -65 -7.5t-45.5 -13t-31.5 -22t-17 -38t-9.5 -57t-1.5 -82.5v-446q0 -233 84 -359t248 -126q180 0 265 132.5t85 393.5v219q0 157 -21 285q-9 57 -53.5 86t-144.5 35v71h512v-71q-156 -8 -172 -121q-19 -120 -19 -285v-223q0 -175 -32.5 -300 t-114.5 -212q-70 -73 -169.5 -111.5t-209.5 -38.5q-228 0 -363 105q-87 69 -128.5 186.5t-41.5 296.5v483q0 51 -1.5 82.5t-9.5 57t-17.5 38t-32 22t-45.5 13t-66 7.5zM485 1454q133 107 271 252h63q100 -108 271 -252l-33 -53q-72 28 -271 125q-183 -92 -268 -125z" />
<glyph unicode="&#xdc;" horiz-adv-x="1492" d="M59 1260v71h617v-71q-42 -4 -65 -7.5t-45.5 -13t-31.5 -22t-17 -38t-9.5 -57t-1.5 -82.5v-446q0 -233 84 -359t248 -126q180 0 265 132.5t85 393.5v219q0 157 -21 285q-9 57 -53.5 86t-144.5 35v71h512v-71q-156 -8 -172 -121q-19 -120 -19 -285v-223q0 -175 -32.5 -300 t-114.5 -212q-70 -73 -169.5 -111.5t-209.5 -38.5q-228 0 -363 105q-87 69 -128.5 186.5t-41.5 296.5v483q0 51 -1.5 82.5t-9.5 57t-17.5 38t-32 22t-45.5 13t-66 7.5zM432 1559q0 58 40.5 97.5t98.5 39.5q57 0 97.5 -39.5t40.5 -97.5q0 -56 -41 -96t-99 -40 q-56 0 -96.5 40.5t-40.5 95.5zM862 1559q0 58 40.5 97.5t98.5 39.5q57 0 97.5 -39.5t40.5 -97.5q0 -56 -41 -96t-99 -40q-56 0 -96.5 40.5t-40.5 95.5z" />
<glyph unicode="&#xdd;" horiz-adv-x="1341" d="M33 1260v71h583v-71q-95 -13 -111 -37.5t15 -79.5q43 -84 133 -252.5t103 -194.5q10 20 64.5 125t90.5 179t58 130q18 40 17 66t-32 40.5t-106 23.5v71h475v-71q-94 -10 -140.5 -44.5t-105.5 -128.5q-121 -193 -229 -401q-23 -43 -30 -69t-7 -72v-262q0 -51 1.5 -80 t10 -54.5t19 -37t36.5 -21t53.5 -13t78.5 -7.5v-70h-666v70q49 4 75.5 7.5t51.5 13t35.5 21t19 37t10 55t1.5 79.5v227q0 35 -5.5 56t-21.5 57q-63 126 -254 464q-56 100 -96.5 130.5t-126.5 42.5zM584 1456q168 120 354 250q29 -10 64.5 -64.5t41.5 -95.5l-8 -24l-424 -123 z" />
<glyph unicode="&#xde;" horiz-adv-x="1214" d="M80 0v72q110 9 139 42t29 146v815q0 61 -4.5 92t-23 52t-46 28t-82.5 13v71h584v-71q-39 -5 -60.5 -8.5t-42.5 -13.5t-29.5 -22.5t-16 -37.5t-9.5 -55.5t-2 -80.5q57 2 168 2q222 0 341.5 -88t119.5 -268q0 -172 -128 -278t-345 -107l-156 33v-92q0 -101 33.5 -130.5 t155.5 -41.5v-72h-625zM516 420q34 -17 94 -17q22 0 49.5 6.5t62 26t62.5 49.5t47 83.5t19 121.5q0 141 -71 206t-175 65q-53 0 -74 -21q-14 -12 -14 -55v-465z" />
<glyph unicode="&#xdf;" horiz-adv-x="1171" d="M53 827l56 78h81v23q0 100 37 184q59 139 193 234q130 90 264 96q87 -1 157 -26.5t114.5 -69t68 -101t23.5 -123.5q0 -39 -21 -63q-95 -69 -138 -123.5t-42 -110.5q0 -29 8 -53.5t31 -53.5t38.5 -45t55.5 -55q65 -61 104 -127.5t39 -152.5q0 -88 -60.5 -173.5 t-154 -137.5t-186.5 -52q-67 0 -121 31q-53 31 -33 82q17 39 43 57q24 18 43 2q80 -71 158 -71q34 0 61 27.5t27 84.5q0 98 -106 207q-96 100 -137.5 161.5t-41.5 129.5q0 21 3 39t12 36.5t15.5 30.5t23 31.5t24 28t30 32t30.5 31.5q11 11 29 28t28 27t14 17q11 17 11 68 q2 111 -63 199.5t-157 88.5q-23 0 -43 -7t-34.5 -22t-26.5 -32.5t-20.5 -44.5t-15 -51t-10.5 -60t-6 -63t-3 -68t-1.5 -68t-0.5 -69v-643q0 -89 14 -113.5t68 -33.5v-68h-472v68q86 9 106.5 33t20.5 112v588h-127z" />
<glyph unicode="&#xe0;" horiz-adv-x="954" d="M61 238q0 77 36.5 120.5t119.5 75.5q27 10 92.5 33.5t101 36.5t76 32t56.5 33v62q0 95 -33.5 147.5t-89.5 52.5q-44 0 -70 -36q-31 -39 -57 -142q-18 -69 -86 -69q-43 0 -86 32t-43 70q0 26 17 47.5t55 50.5q65 44 161 87t178 59q121 0 201 -60q62 -48 84.5 -111.5 t22.5 -158.5v-338q0 -121 65 -121q31 0 70 17l20 -66l-223 -117q-79 0 -125 43q-37 32 -51 76q-11 -7 -34 -22.5t-36 -24t-33.5 -21.5t-34.5 -20.5t-29.5 -15.5t-27 -11.5t-20.5 -3.5q-123 0 -200 80.5t-77 182.5zM225 1321l8 29q23 15 100.5 30t108.5 11q66 -204 111 -363 l-64 -27q-58 73 -154 188t-110 132zM334 285q0 -77 40 -116.5t83 -39.5q42 0 86 33v327q-17 -9 -53.5 -30t-59.5 -33q-50 -26 -73 -57.5t-23 -83.5z" />
<glyph unicode="&#xe1;" horiz-adv-x="954" d="M61 238q0 77 36.5 120.5t119.5 75.5q27 10 92.5 33.5t101 36.5t76 32t56.5 33v62q0 95 -33.5 147.5t-89.5 52.5q-44 0 -70 -36q-31 -39 -57 -142q-18 -69 -86 -69q-43 0 -86 32t-43 70q0 26 17 47.5t55 50.5q65 44 161 87t178 59q121 0 201 -60q62 -48 84.5 -111.5 t22.5 -158.5v-338q0 -121 65 -121q31 0 70 17l20 -66l-223 -117q-79 0 -125 43q-37 32 -51 76q-11 -7 -34 -22.5t-36 -24t-33.5 -21.5t-34.5 -20.5t-29.5 -15.5t-27 -11.5t-20.5 -3.5q-123 0 -200 80.5t-77 182.5zM334 285q0 -77 40 -116.5t83 -39.5q42 0 86 33v327 q-17 -9 -53.5 -30t-59.5 -33q-50 -26 -73 -57.5t-23 -83.5zM383 1030q10 33 33.5 112.5t42 142t24.5 81.5q15 11 106.5 21t117.5 4l12 -23l-273 -367z" />
<glyph unicode="&#xe2;" horiz-adv-x="954" d="M61 238q0 77 36.5 120.5t119.5 75.5q27 10 92.5 33.5t101 36.5t76 32t56.5 33v62q0 95 -33.5 147.5t-89.5 52.5q-44 0 -70 -36q-31 -39 -57 -142q-18 -69 -86 -69q-43 0 -86 32t-43 70q0 26 17 47.5t55 50.5q65 44 161 87t178 59q121 0 201 -60q62 -48 84.5 -111.5 t22.5 -158.5v-338q0 -121 65 -121q31 0 70 17l20 -66l-223 -117q-79 0 -125 43q-37 32 -51 76q-11 -7 -34 -22.5t-36 -24t-33.5 -21.5t-34.5 -20.5t-29.5 -15.5t-27 -11.5t-20.5 -3.5q-123 0 -200 80.5t-77 182.5zM205 1036q111 166 217 355h78q100 -179 221 -355l-57 -45 q-35 28 -69.5 60t-74 71.5t-59.5 57.5q-14 -14 -56.5 -57t-76 -74t-68.5 -58zM334 285q0 -77 40 -116.5t83 -39.5q42 0 86 33v327q-17 -9 -53.5 -30t-59.5 -33q-50 -26 -73 -57.5t-23 -83.5z" />
<glyph unicode="&#xe3;" horiz-adv-x="954" d="M61 238q0 77 36.5 120.5t119.5 75.5q27 10 92.5 33.5t101 36.5t76 32t56.5 33v62q0 95 -33.5 147.5t-89.5 52.5q-44 0 -70 -36q-31 -39 -57 -142q-18 -69 -86 -69q-43 0 -86 32t-43 70q0 26 17 47.5t55 50.5q65 44 161 87t178 59q121 0 201 -60q62 -48 84.5 -111.5 t22.5 -158.5v-338q0 -121 65 -121q31 0 70 17l20 -66l-223 -117q-79 0 -125 43q-37 32 -51 76q-11 -7 -34 -22.5t-36 -24t-33.5 -21.5t-34.5 -20.5t-29.5 -15.5t-27 -11.5t-20.5 -3.5q-123 0 -200 80.5t-77 182.5zM166 1087q35 107 83.5 161.5t106.5 54.5q48 0 127 -43 q80 -41 119 -41q54 0 103 96l57 -31q-36 -121 -84 -169t-94 -48q-53 0 -138 45q-69 41 -114 41q-62 0 -107 -104zM334 285q0 -77 40 -116.5t83 -39.5q42 0 86 33v327q-17 -9 -53.5 -30t-59.5 -33q-50 -26 -73 -57.5t-23 -83.5z" />
<glyph unicode="&#xe4;" horiz-adv-x="954" d="M61 238q0 77 36.5 120.5t121.5 75.5q28 11 91.5 33.5t100 36.5t76.5 32.5t56 32.5v62q0 95 -33.5 147.5t-89.5 52.5q-44 0 -70 -36q-31 -39 -57 -142q-18 -69 -86 -69q-42 0 -84.5 32t-42.5 70q0 26 16.5 47.5t53.5 50.5q67 45 162 87.5t177 58.5q118 0 201 -60 q62 -48 84.5 -111.5t22.5 -158.5v-338q0 -121 65 -121q31 0 70 17l20 -66l-223 -117q-79 0 -125 43q-34 30 -53 76l-46.5 -31t-51.5 -34t-42.5 -26t-42.5 -21.5t-28 -6.5q-124 0 -201.5 80.5t-77.5 182.5zM111 1198q0 58 41.5 97.5t97.5 39.5q58 0 97.5 -39.5t39.5 -97.5 q0 -56 -40 -95.5t-99 -39.5q-55 0 -96 40t-41 95zM334 285q0 -77 40 -116.5t83 -39.5q40 0 86 33v327q-19 -10 -113 -63q-49 -27 -72.5 -58.5t-23.5 -82.5zM532 1198q0 58 41 97.5t97 39.5q59 0 99 -39.5t40 -97.5q0 -56 -40.5 -95.5t-100.5 -39.5q-54 0 -95 40t-41 95z" />
<glyph unicode="&#xe5;" horiz-adv-x="954" d="M61 238q0 77 36.5 120.5t119.5 75.5q27 10 92.5 33.5t101 36.5t76 32t56.5 33v62q0 95 -33.5 147.5t-89.5 52.5q-44 0 -70 -36q-31 -39 -57 -142q-18 -69 -86 -69q-43 0 -86 32t-43 70q0 26 17 47.5t55 50.5q65 44 161 87t178 59q121 0 201 -60q62 -48 84.5 -111.5 t22.5 -158.5v-338q0 -121 65 -121q31 0 70 17l20 -66l-221 -117q-77 0 -127 43q-37 32 -51 76q-11 -7 -34 -22.5t-36 -24t-33.5 -21.5t-34.5 -20.5t-29.5 -15.5t-27 -11.5t-20.5 -3.5q-123 0 -200 80.5t-77 182.5zM268 1210q0 82 59 133.5t138 51.5q76 0 135 -52t59 -133 q0 -84 -59 -136t-137 -52t-136.5 52t-58.5 136zM334 285q0 -77 40 -116.5t85 -39.5q40 0 84 33v327q-70 -40 -113 -63q-49 -27 -72.5 -58.5t-23.5 -82.5zM371 1210q0 -48 27.5 -78t68.5 -30q40 0 64 29.5t24 78.5q0 45 -24.5 74t-65.5 29q-39 0 -66.5 -29.5t-27.5 -73.5z " />
<glyph unicode="&#xe6;" horiz-adv-x="1374" d="M63 231q0 78 37.5 126t118.5 79q22 8 88 31.5t102.5 37t80.5 33.5t65 35v52q0 91 -41 147.5t-92 56.5q-43 0 -70 -34q-29 -34 -53 -138q-21 -69 -88 -69q-40 0 -83.5 31t-43.5 67q0 49 74 100q157 104 336 144q95 0 163 -51q56 -34 74 -78q58 59 133 94t140 35 q143 0 241 -101.5t98 -230.5q0 -37 -12 -54t-45 -24q-23 -6 -184 -16.5t-318 -16.5q-1 -160 79 -244.5t204 -84.5q111 0 223 86l39 -51q-43 -63 -96.5 -108.5t-103.5 -68t-89.5 -32t-70.5 -9.5q-112 0 -197.5 45.5t-136.5 126.5l-62 -51q-59 -50 -125.5 -85.5t-111.5 -35.5 q-121 0 -197 79t-76 177zM334 287q0 -71 39.5 -110.5t89.5 -39.5q34 0 72 19t65 53q-47 108 -47 285q-70 -34 -125 -66q-48 -28 -71 -60.5t-23 -80.5zM795 582q126 0 249 6q26 0 37 10.5t11 38.5q0 80 -38 143.5t-98 63.5q-59 0 -105 -70t-56 -192z" />
<glyph unicode="&#xe7;" horiz-adv-x="864" d="M61 410q0 112 55.5 215.5t153.5 175.5q174 129 346 129q45 0 99.5 -14.5t83.5 -36.5q32 -24 32 -66q-1 -44 -32.5 -82.5t-55.5 -38.5q-21 0 -47 23q-109 104 -209 104q-67 0 -117.5 -74t-50.5 -227q0 -78 21 -141.5t52.5 -103t70.5 -66.5t73.5 -38t63.5 -11 q61 0 110 20.5t111 69.5l39 -49q-127 -179 -305 -213l-29 -39q-13 -19 -6.5 -35t35.5 -47q72 -87 72 -146q0 -63 -65.5 -119t-186.5 -92l-31 58q127 67 127 123q0 32 -41 73q-40 43 -44.5 70t24.5 64l63 79q-188 13 -300 134t-112 301z" />
<glyph unicode="&#xe8;" horiz-adv-x="894" d="M61 414q0 111 41.5 206t110.5 164t150 107.5t163 38.5h2q139 0 236.5 -100.5t97.5 -229.5q-2 -33 -14.5 -51.5t-44.5 -22.5q-30 -5 -189 -15.5t-301 -16.5q6 -158 83.5 -244t193.5 -86q125 0 229 88l35 -49q-44 -66 -96.5 -113.5t-103 -71t-92 -33.5t-77.5 -10 q-132 0 -230 61t-146 159.5t-48 218.5zM231 1321l9 29q23 15 100.5 30t108.5 11q57 -178 110 -363l-63 -27q-58 73 -154 187t-111 133zM322 590q47 1 127.5 3t117.5 3q24 0 33.5 8t9.5 33q2 83 -33 147t-92 64q-62 0 -107.5 -69.5t-55.5 -188.5z" />
<glyph unicode="&#xe9;" horiz-adv-x="894" d="M61 414q0 111 41.5 206t110.5 164t150 107.5t163 38.5h2q139 0 236.5 -100.5t97.5 -229.5q-2 -33 -14.5 -51.5t-44.5 -22.5q-30 -5 -189 -15.5t-301 -16.5q6 -158 83.5 -244t193.5 -86q125 0 229 88l35 -49q-44 -66 -96.5 -113.5t-103 -71t-92 -33.5t-77.5 -10 q-132 0 -230 61t-146 159.5t-48 218.5zM322 590q47 1 127.5 3t117.5 3q24 0 33.5 8t9.5 33q2 83 -33 147t-92 64q-62 0 -107.5 -69.5t-55.5 -188.5zM414 1030q10 33 33.5 112.5t42 142t24.5 81.5q15 11 106 21t117 4l13 -23l-273 -367z" />
<glyph unicode="&#xea;" horiz-adv-x="894" d="M61 414q0 111 41.5 206t110.5 164t150 107.5t163 38.5h2q139 0 236.5 -100.5t97.5 -229.5q-2 -33 -14.5 -51.5t-44.5 -22.5q-30 -5 -189 -15.5t-301 -16.5q6 -158 83.5 -244t193.5 -86q125 0 229 88l35 -49q-44 -66 -96.5 -113.5t-103 -71t-92 -33.5t-77.5 -10 q-132 0 -230 61t-146 159.5t-48 218.5zM219 1036q111 166 217 355h78q100 -179 221 -355l-57 -45q-35 28 -69.5 60t-74 71.5t-59.5 57.5q-14 -14 -56.5 -57t-76 -74t-68.5 -58zM322 590q47 1 127.5 3t117.5 3q24 0 33.5 8t9.5 33q2 83 -33 147t-92 64q-62 0 -107.5 -69.5 t-55.5 -188.5z" />
<glyph unicode="&#xeb;" horiz-adv-x="894" d="M61 414q0 112 41 207t111 163q69 69 150 107.5t163 38.5h2q139 0 236.5 -100.5t97.5 -229.5q-2 -34 -15 -52t-46 -22q-31 -5 -189 -15.5t-299 -16.5q6 -158 83.5 -244t193.5 -86q123 0 227 88l37 -49q-44 -66 -96.5 -113.5t-103 -71t-92 -33.5t-77.5 -10q-132 0 -230 61 t-146 159.5t-48 218.5zM123 1198q0 58 40.5 97.5t96.5 39.5q59 0 99 -39.5t40 -97.5q0 -56 -40.5 -95.5t-100.5 -39.5q-54 0 -94.5 40t-40.5 95zM324 590q42 1 121.5 3t121.5 3q24 0 33.5 8t9.5 33q0 84 -34 147.5t-91 63.5q-62 0 -107 -69.5t-54 -188.5zM545 1198 q0 58 40.5 97.5t98.5 39.5t97.5 -39.5t39.5 -97.5q0 -56 -40 -95.5t-99 -39.5q-56 0 -96.5 40t-40.5 95z" />
<glyph unicode="&#xec;" horiz-adv-x="604" d="M49 1321l8 29q23 15 100.5 30t108.5 11q66 -204 111 -363l-64 -27q-58 73 -154 188t-110 132zM59 0v68q87 9 108 39.5t21 142.5v389q0 37 -0.5 53t-4 37t-9.5 28t-19.5 16.5t-31.5 13.5t-47 8v61q194 22 375 74v-680q0 -44 0.5 -66.5t6 -45t12 -31.5t23 -18.5t35 -13 t52.5 -7.5v-68h-521z" />
<glyph unicode="&#xed;" horiz-adv-x="604" d="M59 0v68q87 9 108 39.5t21 142.5v389q0 37 -0.5 53t-4 37t-9.5 28t-19.5 16.5t-31.5 13.5t-47 8v61q194 22 375 74v-680q0 -44 0.5 -66.5t6 -45t12 -31.5t23 -18.5t35 -13t52.5 -7.5v-68h-521zM238 1030q10 33 33.5 112.5t42 142t24.5 81.5q15 11 106 21t117 4l12 -23 l-272 -367z" />
<glyph unicode="&#xee;" horiz-adv-x="604" d="M43 1036q111 166 217 355h78q100 -179 221 -355l-57 -45q-35 28 -69.5 60t-74 71.5t-59.5 57.5q-14 -14 -56.5 -57t-76 -74t-68.5 -58zM59 0v68q87 9 108 39.5t21 142.5v389q0 37 -0.5 53t-4 37t-9.5 28t-19.5 16.5t-31.5 13.5t-47 8v61q194 22 375 74v-680 q0 -44 0.5 -66.5t6 -45t12 -31.5t23 -18.5t35 -13t52.5 -7.5v-68h-521z" />
<glyph unicode="&#xef;" horiz-adv-x="604" d="M-53 1198q0 58 40.5 97.5t96.5 39.5q59 0 99 -39.5t40 -97.5q0 -56 -40.5 -95.5t-100.5 -39.5q-54 0 -94.5 40t-40.5 95zM61 0v68q87 9 108 39.5t21 142.5v389q0 36 -0.5 53t-4.5 37t-10.5 28t-20 17t-31.5 13t-47 8v61q195 22 377 74v-680q0 -44 0.5 -66.5t6 -45 t12 -31.5t23 -18.5t35 -13t52.5 -7.5v-68h-521zM369 1198q0 58 40.5 97.5t96.5 39.5q59 0 99 -39.5t40 -97.5q0 -56 -40.5 -95.5t-100.5 -39.5q-54 0 -94.5 40t-40.5 95z" />
<glyph unicode="&#xf0;" horiz-adv-x="1069" d="M61 442q1 114 43.5 208.5t111.5 154.5t156 92.5t181 32.5h2q45 0 100 -19q-30 107 -114 217l-297 -149l-39 76l280 137q-74 74 -165.5 119.5t-174.5 58.5q-12 12 -5 37t24 33q251 -15 465 -164l284 145l41 -78l-254 -129q142 -132 218.5 -301.5t76.5 -361.5 q0 -149 -38.5 -263t-105.5 -180.5t-150 -99.5t-179 -33q-110 0 -200.5 39.5t-146.5 105.5t-86 149t-28 173zM352 502q-2 -203 51.5 -323t145.5 -120q27 0 48.5 8.5t44 35.5t38 71t26 119.5t11.5 177.5q3 239 -47 307q-54 72 -129 72q-80 0 -134.5 -92t-54.5 -256z" />
<glyph unicode="&#xf1;" horiz-adv-x="1159" d="M53 0v66q38 5 54.5 8t36 10.5t25 15t12 26.5t7 39t0.5 58v426q0 91 -16.5 113t-91.5 37v57q175 21 371 78v-150q19 12 61 42.5t66 45.5q50 32 83.5 45t75.5 13q125 0 197 -87.5t72 -240.5v-387q0 -35 1 -55t6.5 -37t11 -25t22 -15t31 -9.5t46.5 -7.5v-66h-477v66 q36 5 52 10t28 23.5t14 46t2 85.5v349q0 102 -39.5 147t-101.5 45q-70 0 -151 -63v-496q0 -94 15 -116t81 -31v-66h-494zM285 1087q35 107 83.5 161.5t106.5 54.5q48 0 127 -43q80 -41 119 -41q53 0 102 96l58 -31q-36 -121 -84 -169t-95 -48q-54 0 -139 45q-69 41 -114 41 q-62 0 -107 -104z" />
<glyph unicode="&#xf2;" horiz-adv-x="1075" d="M61 432q0 96 29 178.5t77.5 140t112 99t132.5 61t139 19.5q138 0 245.5 -64t163.5 -168.5t56 -228.5q0 -119 -40 -215.5t-107.5 -156t-151.5 -91t-176 -31.5q-94 0 -173.5 26t-135 70.5t-95 103.5t-58 124t-18.5 133zM283 1321l8 29q23 15 100.5 30t108.5 11 q57 -178 110 -363l-63 -27q-58 73 -154 188t-110 132zM354 506q0 -126 25 -228t73 -162.5t111 -60.5q26 0 47 7.5t43 30t36.5 60t24 102.5t9.5 153q0 214 -52.5 328t-150.5 114q-68 0 -117 -89.5t-49 -254.5z" />
<glyph unicode="&#xf3;" horiz-adv-x="1075" d="M61 432q0 96 29 178.5t77.5 140t112 99t132.5 61t139 19.5q138 0 245.5 -64t163.5 -168.5t56 -228.5q0 -119 -40 -215.5t-107.5 -156t-151.5 -91t-176 -31.5q-94 0 -173.5 26t-135 70.5t-95 103.5t-58 124t-18.5 133zM354 506q0 -126 25 -228t73 -162.5t111 -60.5 q26 0 47 7.5t43 30t36.5 60t24 102.5t9.5 153q0 214 -52.5 328t-150.5 114q-68 0 -117 -89.5t-49 -254.5zM469 1030q10 33 33.5 112.5t42 142t24.5 81.5q15 11 106.5 21t117.5 4l12 -23l-273 -367z" />
<glyph unicode="&#xf4;" horiz-adv-x="1075" d="M61 432q0 96 29 178.5t77.5 140t112 99t132.5 61t139 19.5q138 0 245.5 -64t163.5 -168.5t56 -228.5q0 -119 -40 -215.5t-107.5 -156t-151.5 -91t-176 -31.5q-94 0 -173.5 26t-135 70.5t-95 103.5t-58 124t-18.5 133zM279 1036q111 166 217 355h77q96 -171 222 -355 l-58 -45q-35 28 -69.5 60.5t-73.5 71t-59 57.5q-14 -14 -56.5 -57t-76 -74t-68.5 -58zM354 506q0 -126 25 -228t73 -162.5t111 -60.5q26 0 47 7.5t43 30t36.5 60t24 102.5t9.5 153q0 214 -52.5 328t-150.5 114q-68 0 -117 -89.5t-49 -254.5z" />
<glyph unicode="&#xf5;" horiz-adv-x="1075" d="M61 432q0 96 29 178.5t77.5 140t112 99t132.5 61t139 19.5q138 0 245.5 -64t163.5 -168.5t56 -228.5q0 -119 -40 -215.5t-107.5 -156t-151.5 -91t-176 -31.5q-94 0 -173.5 26t-135 70.5t-95 103.5t-58 124t-18.5 133zM236 1087q35 107 83.5 161.5t106.5 54.5 q48 0 127 -43q80 -41 119 -41q53 0 102 96l57 -31q-36 -121 -83.5 -169t-94.5 -48q-52 0 -137 45q-69 41 -115 41q-61 0 -106 -104zM354 506q0 -126 25 -228t73 -162.5t111 -60.5q26 0 47 7.5t43 30t36.5 60t24 102.5t9.5 153q0 214 -52.5 328t-150.5 114q-68 0 -117 -89.5 t-49 -254.5z" />
<glyph unicode="&#xf6;" horiz-adv-x="1075" d="M59 432q0 96 29 178t77.5 140t112.5 99.5t133.5 61t139.5 19.5q138 0 245.5 -64t163.5 -168.5t56 -228.5q0 -119 -40 -215.5t-107.5 -156t-151.5 -91t-176 -31.5q-94 0 -173.5 26t-135.5 70.5t-95.5 103.5t-58.5 124t-19 133zM188 1198q0 58 42 97.5t98 39.5 q58 0 97.5 -39.5t39.5 -97.5q0 -56 -40 -95.5t-99 -39.5q-55 0 -96.5 40t-41.5 95zM352 506q0 -193 58 -322t153 -129q26 0 47 7.5t43 30t36.5 60t24 102.5t9.5 153q0 214 -52.5 328t-150.5 114q-70 0 -119 -89.5t-49 -254.5zM610 1198q0 58 41 97.5t97 39.5q59 0 99 -39.5 t40 -97.5q0 -56 -41 -95.5t-101 -39.5q-54 0 -94.5 40t-40.5 95z" />
<glyph unicode="&#xf7;" horiz-adv-x="1181" d="M96 453v133h991v-133h-991zM469 203q0 51 35.5 87t89.5 36q47 0 84 -36.5t37 -86.5q0 -49 -37.5 -87t-85.5 -38q-52 0 -87.5 37.5t-35.5 87.5zM473 838q0 49 38 87t83 38q52 0 88.5 -37.5t36.5 -87.5q0 -51 -36.5 -87t-90.5 -36q-44 0 -81.5 36.5t-37.5 86.5z" />
<glyph unicode="&#xf8;" horiz-adv-x="1087" d="M61 432q0 117 44.5 214t116.5 157.5t158.5 93.5t174.5 33q123 0 223 -53l72 102l57 -43l-67 -100q92 -64 139 -159t47 -204q0 -120 -40.5 -217t-109 -157t-154 -92t-179.5 -32q-127 0 -242 56l-72 -105l-59 47l70 103q-87 64 -133 159t-46 197zM334 483q0 -127 35 -223 l313 479q-59 107 -156 107q-31 0 -62.5 -19.5t-61.5 -59t-49 -113.5t-19 -171zM406 178q59 -121 157 -121q28 0 52.5 8.5t51.5 33t45.5 64.5t31 108.5t12.5 158.5q0 136 -35 232z" />
<glyph unicode="&#xf9;" horiz-adv-x="1136" d="M57 823v60q40 2 185 14q96 8 196 23q-6 -86 -6 -310v-297q0 -93 40 -136.5t99 -43.5q89 0 146 57v498q0 70 -12 91t-54 30l-63 14v60q56 2 205 14q100 8 186 23v-666q0 -81 15 -105t71 -30l45 -4v-66q-69 -9 -184 -33q-59 -11 -191 -41l-18 15v123q-62 -51 -103 -76 q-91 -62 -176 -62q-127 0 -197.5 77.5t-70.5 213.5v424q0 68 -12 88t-54 31zM313 1321l11 27q21 17 97.5 31.5t108.5 9.5q64 -199 111 -361l-63 -27q-56 69 -149.5 181t-115.5 139z" />
<glyph unicode="&#xfa;" horiz-adv-x="1136" d="M57 823v60q40 2 185 14q96 8 196 23q-6 -86 -6 -310v-297q0 -93 40 -136.5t99 -43.5q89 0 146 57v498q0 70 -12 91t-54 30l-63 14v60q56 2 205 14q100 8 186 23v-666q0 -81 15 -105t71 -30l45 -4v-66q-69 -9 -184 -33q-59 -11 -191 -41l-18 15v123q-62 -51 -103 -76 q-91 -62 -176 -62q-127 0 -197.5 77.5t-70.5 213.5v424q0 68 -12 88t-54 31zM489 1028q9 31 33.5 112.5t43 144t24.5 81.5q15 10 105 19.5t116 3.5l12 -21l-270 -367z" />
<glyph unicode="&#xfb;" horiz-adv-x="1136" d="M57 823v60q40 2 185 14q96 8 196 23q-6 -86 -6 -310v-297q0 -93 40 -136.5t99 -43.5q89 0 146 57v498q0 70 -12 91t-54 30l-63 14v60q56 2 205 14q100 8 186 23v-666q0 -81 15 -105t71 -30l45 -4v-66q-69 -9 -184 -33q-59 -11 -191 -41l-18 15v123q-62 -51 -103 -76 q-91 -62 -176 -62q-127 0 -197.5 77.5t-70.5 213.5v424q0 68 -12 88t-54 31zM303 1036q103 151 217 355h76q114 -203 221 -355l-57 -45q-35 28 -67 58t-76.5 74.5t-57.5 56.5q-15 -14 -58 -57.5t-75.5 -74t-67.5 -57.5z" />
<glyph unicode="&#xfc;" horiz-adv-x="1136" d="M57 823v60q40 2 185 14q96 8 196 23q-6 -86 -6 -310v-297q0 -93 40 -136.5t99 -43.5q89 0 146 57v498q0 70 -12 91t-54 30l-63 14v60q56 2 205 14q100 8 186 23v-666q0 -81 15 -105t71 -30l45 -4v-66q-69 -9 -184 -33q-59 -11 -191 -41l-18 15v123q-62 -51 -103 -76 q-91 -62 -176 -62q-127 0 -197.5 77.5t-70.5 213.5v424q0 68 -12 88t-54 31zM203 1198q0 58 41.5 97.5t97.5 39.5q58 0 97.5 -39.5t39.5 -97.5q0 -56 -40 -95.5t-99 -39.5q-55 0 -96 40t-41 95zM623 1198q0 58 40.5 97.5t98.5 39.5q57 0 97 -39.5t40 -97.5 q0 -56 -40.5 -95.5t-98.5 -39.5q-56 0 -96.5 40t-40.5 95z" />
<glyph unicode="&#xfd;" horiz-adv-x="952" d="M-14 840v65h506v-65q-68 -14 -82 -30t2 -67l153 -452q71 174 154 436q17 51 -3.5 75.5t-94.5 37.5v65h368v-65q-73 -12 -102 -38t-68 -110q-18 -38 -43.5 -97t-48.5 -115t-66.5 -161.5t-78.5 -189.5q-146 -350 -215 -575q-17 -56 -76 -56q-47 0 -96.5 39.5t-49.5 91.5 q0 24 12.5 40.5t45.5 37.5q62 33 99.5 66.5t66.5 81.5q33 61 39 84q12 41 -7 98q-170 472 -258 676q-29 68 -58 92.5t-99 34.5zM449 1030q10 33 33.5 112.5t42 142t24.5 81.5q15 11 106 21t117 4l12 -23l-272 -367z" />
<glyph unicode="&#xfe;" horiz-adv-x="1101" d="M14 -406q64 5 88.5 16.5t34.5 43t10 108.5v1391q0 39 -2 60t-8.5 40t-21.5 28t-38 15.5t-61 10.5v59q204 20 394 74v-621q91 49 178 92q44 19 84 19q89 0 161.5 -35.5t117 -93.5t68 -128t23.5 -143q0 -109 -41 -204.5t-111 -164.5t-159 -116.5t-190 -69.5q-62 0 -131 25 v-229q0 -39 1.5 -62.5t8.5 -44.5t18 -31.5t32 -19.5t48 -12.5t70 -6.5v-65h-574v65zM410 152q84 -76 151 -76q85 0 150 93t65 263q0 89 -22 158.5t-58 109t-76.5 59t-82.5 19.5q-11 0 -21.5 -1t-21 -3t-17 -3.5t-18 -6t-15.5 -6.5t-17 -7.5t-17 -7.5v-591z" />
<glyph unicode="&#xff;" horiz-adv-x="952" d="M-14 840v65h506v-65q-68 -14 -82 -30t2 -67l153 -452q71 174 154 436q17 51 -3.5 75.5t-94.5 37.5v65h368v-65q-73 -12 -102 -38t-68 -110q-18 -38 -43.5 -97t-48.5 -115t-66.5 -161.5t-78.5 -189.5q-146 -350 -215 -575q-17 -56 -76 -56q-47 0 -96.5 39.5t-49.5 91.5 q0 24 12.5 40.5t45.5 37.5q62 33 99.5 66.5t66.5 81.5q33 61 39 84q12 41 -7 98q-170 472 -258 676q-29 68 -58 92.5t-99 34.5zM152 1198q0 58 40.5 97.5t98.5 39.5q57 0 97 -39.5t40 -97.5q0 -56 -40.5 -95.5t-98.5 -39.5q-56 0 -96.5 40t-40.5 95zM571 1198q0 58 41 97.5 t99 39.5q57 0 97 -39.5t40 -97.5q0 -56 -40.5 -95.5t-98.5 -39.5q-56 0 -97 40t-41 95z" />
<glyph unicode="&#x152;" horiz-adv-x="2031" d="M84 649q0 203 98 363t281.5 251t423.5 91q36 0 72.5 -2t77.5 -6t63 -5q147 -10 182 -10h606q2 -50 23 -303l-78 -10q-31 116 -86 174q-26 28 -72.5 38.5t-142.5 10.5h-94q-55 0 -67.5 -11t-12.5 -61v-434h145q55 0 86 3t57.5 10.5t40.5 26t24.5 44t19.5 70.5h73v-412h-73 q-8 39 -15 63t-20 42.5t-25.5 27.5t-39.5 15t-53.5 7t-74.5 1h-145v-334q0 -101 9.5 -141t39.5 -52q42 -18 180 -18q169 0 232 68q66 69 120 211l72 -15q-12 -80 -72 -352h-665q-122 0 -215 -10q-133 -13 -209 -13q-154 0 -282 36t-216.5 98.5t-149.5 148t-89.5 183.5 t-28.5 206zM395 676q0 -99 19.5 -189t59.5 -167.5t96.5 -134.5t135 -89.5t171.5 -32.5q86 0 137 21q42 18 57.5 43t15.5 78v938q0 42 -13 64t-44 34q-60 25 -156 25q-216 0 -347.5 -158t-131.5 -432z" />
<glyph unicode="&#x153;" horiz-adv-x="1576" d="M55 436q0 94 29 175.5t77.5 139t112 98.5t132.5 61t139 20q205 0 327 -172q64 75 148 123.5t176 48.5q143 0 243.5 -100t100.5 -232q0 -34 -13 -51t-42 -25q-26 -5 -192.5 -16t-317.5 -17q2 -150 79 -240.5t210 -90.5q111 0 223 86l37 -49q-42 -64 -94.5 -110.5 t-102 -68.5t-88 -31.5t-70.5 -9.5q-203 0 -325 154q-67 -79 -151 -116.5t-167 -37.5q-89 0 -166.5 26.5t-132.5 71t-94.5 104t-58.5 125.5t-19 134zM350 498q-1 -117 23.5 -215.5t74.5 -160.5t115 -63q23 0 44 8t43.5 32t38.5 62.5t26.5 104t11.5 150.5q1 210 -55 321 t-152 111q-66 0 -117.5 -90t-52.5 -260zM985 580q243 5 258 6q26 0 35.5 8.5t9.5 36.5q0 83 -38.5 148t-98.5 65q-58 0 -107.5 -71t-58.5 -193z" />
<glyph unicode="&#x178;" horiz-adv-x="1341" d="M33 1260v71h583v-71q-95 -13 -111 -37.5t15 -79.5q43 -84 133 -252.5t103 -194.5q10 20 64.5 125t90.5 179t58 130q18 40 17 66t-32 40.5t-106 23.5v71h475v-71q-94 -10 -140.5 -44.5t-105.5 -128.5q-122 -194 -227 -401q-23 -41 -30 -67.5t-7 -73.5v-262 q0 -51 1.5 -79.5t10 -54.5t18.5 -37.5t35.5 -21t53 -13t78.5 -7.5v-70h-664v70q48 4 74.5 7.5t51.5 13t35.5 21.5t19 37t10.5 54.5t2 79.5v227q0 36 -6 57.5t-23 55.5q-63 126 -254 464q-56 100 -96.5 130.5t-126.5 42.5zM350 1559q0 58 40.5 97.5t96.5 39.5 q59 0 99.5 -39.5t40.5 -97.5q0 -56 -41 -96t-101 -40q-54 0 -94.5 40.5t-40.5 95.5zM780 1559q0 58 41 97.5t99 39.5t97.5 -39t39.5 -98q0 -56 -40 -96t-99 -40q-56 0 -97 40.5t-41 95.5z" />
<glyph unicode="&#x2c6;" horiz-adv-x="819" d="M152 1036q111 166 217 355h77q96 -171 222 -355l-58 -45q-35 28 -69.5 60.5t-73.5 71t-59 57.5q-14 -14 -56.5 -57t-76 -74t-68.5 -58z" />
<glyph unicode="&#x2dc;" horiz-adv-x="819" d="M106 1087q35 107 84 161.5t107 54.5q48 0 127 -43q34 -17 46.5 -23t34 -13t38.5 -7q54 0 102 98l57 -31q-36 -121 -84 -169t-94 -48q-52 0 -137 45q-69 41 -115 41q-61 0 -106 -104z" />
<glyph unicode="&#x2000;" horiz-adv-x="883" />
<glyph unicode="&#x2001;" horiz-adv-x="1767" />
<glyph unicode="&#x2002;" horiz-adv-x="883" />
<glyph unicode="&#x2003;" horiz-adv-x="1767" />
<glyph unicode="&#x2004;" horiz-adv-x="589" />
<glyph unicode="&#x2005;" horiz-adv-x="441" />
<glyph unicode="&#x2006;" horiz-adv-x="294" />
<glyph unicode="&#x2007;" horiz-adv-x="294" />
<glyph unicode="&#x2008;" horiz-adv-x="220" />
<glyph unicode="&#x2009;" horiz-adv-x="353" />
<glyph unicode="&#x200a;" horiz-adv-x="98" />
<glyph unicode="&#x2010;" horiz-adv-x="700" d="M84 397l31 146h503l-30 -146h-504z" />
<glyph unicode="&#x2011;" horiz-adv-x="700" d="M84 397l31 146h503l-30 -146h-504z" />
<glyph unicode="&#x2012;" horiz-adv-x="700" d="M84 397l31 146h503l-30 -146h-504z" />
<glyph unicode="&#x2013;" horiz-adv-x="1046" d="M102 401v140h842v-140h-842z" />
<glyph unicode="&#x2014;" horiz-adv-x="1886" d="M102 401v138h1682v-138h-1682z" />
<glyph unicode="&#x2018;" horiz-adv-x="495" d="M59 1137q0 66 28 122.5t76.5 96.5t105 67.5t120.5 44.5l27 -69q-176 -81 -176 -199q0 -56 39.5 -94.5t105.5 -50.5q5 -1 11 -8.5t12 -25.5t6 -40q0 -41 -35.5 -68.5t-79.5 -27.5h-2q-86 0 -162 70.5t-76 181.5z" />
<glyph unicode="&#x2019;" horiz-adv-x="495" d="M76 938q174 79 174 197q0 56 -39 94.5t-105 50.5q-9 2 -18.5 22t-9.5 52q0 40 35.5 68t81.5 28q53 0 106 -29t91 -88.5t38 -134.5q0 -65 -28 -121.5t-76.5 -96.5t-104 -68t-119.5 -46z" />
<glyph unicode="&#x201a;" horiz-adv-x="518" d="M76 -229q186 88 186 215q0 59 -41 99t-112 54q-10 2 -20.5 23t-10.5 55q0 43 38.5 72.5t86.5 29.5q91 0 170.5 -75t79.5 -195q0 -58 -20.5 -109t-54 -88t-80 -68t-94.5 -51t-102 -34z" />
<glyph unicode="&#x201c;" horiz-adv-x="911" d="M59 1137q0 66 28.5 122.5t78 96.5t105.5 67.5t120 44.5l27 -69q-178 -83 -178 -195q0 -58 39 -97.5t106 -51.5q5 -1 11 -8.5t12 -25.5t6 -40q0 -41 -36.5 -68.5t-80.5 -27.5h-2q-53 0 -106 29t-91.5 88.5t-38.5 134.5zM475 1137q0 66 28.5 122.5t77.5 96.5t105 67.5 t121 44.5l27 -69q-181 -83 -181 -195q0 -58 40 -97.5t108 -51.5q5 -1 10.5 -8.5t10.5 -25t5 -40.5q0 -41 -35.5 -68.5t-80.5 -27.5h-2q-53 0 -105.5 29t-90.5 88.5t-38 134.5z" />
<glyph unicode="&#x201d;" horiz-adv-x="911" d="M72 938q178 79 178 197q0 56 -39 94.5t-105 50.5q-9 2 -18.5 22t-9.5 52q0 40 35.5 68t81.5 28q53 0 106 -29t91 -88.5t38 -134.5q0 -65 -29 -121.5t-78 -96.5t-105.5 -68t-121.5 -46zM489 938q179 81 179 197q0 56 -39.5 94.5t-106.5 50.5q-5 1 -10.5 9t-10.5 25.5 t-5 39.5q0 40 35 68t81 28q53 0 106 -29t91.5 -88.5t38.5 -134.5q0 -65 -29 -121.5t-78.5 -96.5t-106 -68t-120.5 -46z" />
<glyph unicode="&#x201e;" horiz-adv-x="964" d="M76 -231q186 91 186 217q0 59 -41 99t-112 54q-10 2 -20.5 23t-10.5 55q0 43 38.5 72.5t86.5 29.5q91 0 170.5 -75t79.5 -195q0 -71 -30 -131.5t-81.5 -102t-109.5 -70t-126 -46.5zM520 -231q189 91 189 217q0 59 -43 99t-115 54q-5 1 -11 9t-12 27t-6 42q0 43 38.5 72.5 t86.5 29.5q58 0 114 -30.5t96 -94.5t40 -145q0 -71 -29.5 -131.5t-81.5 -102t-110.5 -70t-126.5 -46.5z" />
<glyph unicode="&#x2022;" horiz-adv-x="817" d="M133 455q0 120 80.5 202t194.5 82h4q112 0 192 -82t80 -202q0 -122 -80.5 -203.5t-195.5 -81.5q-114 0 -194.5 81.5t-80.5 203.5z" />
<glyph unicode="&#x2026;" horiz-adv-x="2013" d="M186 131q0 67 42.5 111.5t107.5 44.5q66 0 108.5 -44t42.5 -112q0 -69 -42.5 -112.5t-110.5 -43.5q-64 0 -106 44t-42 112zM866 131q0 67 43.5 111.5t106.5 44.5q66 0 108.5 -44t42.5 -112q0 -69 -42.5 -112.5t-110.5 -43.5q-62 0 -105 44t-43 112zM1532 131 q0 68 42.5 112t106.5 44q66 0 109 -44t43 -112q0 -69 -43 -112.5t-111 -43.5q-63 0 -105 43.5t-42 112.5z" />
<glyph unicode="&#x202f;" horiz-adv-x="353" />
<glyph unicode="&#x2039;" horiz-adv-x="571" d="M92 461q166 175 324 391l65 -39l-170 -352l170 -357l-65 -38q-141 196 -324 395z" />
<glyph unicode="&#x203a;" horiz-adv-x="571" d="M90 102l170 357l-170 352l66 41q149 -200 323 -393q-175 -187 -323 -393z" />
<glyph unicode="&#x205f;" horiz-adv-x="441" />
<glyph unicode="&#x20ac;" d="M23 506l24 82h88q-1 21 4 121h-84l27 82h70q40 244 187.5 379t350.5 135q111 0 238 -48q20 -142 30 -256l-71 -16q-30 116 -78.5 177t-130.5 61q-97 0 -161 -110.5t-87 -321.5h498l-27 -82h-479q-4 -42 0 -121h438l-24 -82h-408q21 -219 80 -331t164 -112q69 0 124.5 57 t114.5 181l66 -20q-29 -138 -84 -258q-43 -16 -115 -32t-131 -16q-98 0 -178 27.5t-135.5 75t-96 116t-62.5 145.5t-32 167h-120z" />
<glyph unicode="&#x2122;" horiz-adv-x="987" d="M49 1198q1 21 3.5 63t2.5 56h33q3 -7 10 -10q4 -2 17 -2h227q15 0 27 12h30q1 -16 2 -57.5t2 -61.5h-36q-13 43 -25 53q-10 13 -49 13h-23v-189q0 -41 8 -50.5t48 -10.5v-37h-201v37q38 1 45.5 10t7.5 51v189h-18q-36 0 -51 -15q-17 -13 -23 -51h-37zM424 977v37 q42 0 45 26q8 33 12 82l6 82q3 38 -5 47.5t-46 12.5v41h170l82 -175l88 175h156v-41q-30 -3 -36.5 -12t-6.5 -44l2 -135q0 -40 7.5 -48.5t39.5 -10.5v-37h-184v37q34 1 40.5 8.5t6.5 42.5l2 178h-4l-121 -262h-37l-100 254h-4l-7 -119q-3 -65 -2 -76q0 -13 11.5 -18.5 t40.5 -7.5v-37h-156z" />
<glyph unicode="&#xe000;" horiz-adv-x="901" d="M0 0v901h901v-901h-901z" />
<glyph unicode="&#xfb01;" horiz-adv-x="1189" d="M43 831l61 74h86v45q0 93 50 195q46 92 159 176q142 112 303 119q158 -5 238 -97q45 -56 18 -112q-17 -43 -63 -68q-56 -35 -86 6q-2 2 -19.5 26t-27.5 36.5t-32 35t-41.5 34.5t-47.5 22t-57 10q-42 0 -71.5 -31.5t-41.5 -89.5q-18 -82 -18 -243v-64h202q256 0 381 25 v-715q0 -91 19.5 -114.5t103.5 -32.5v-68h-483v68q66 7 82 31.5t16 115.5v447q0 96 -16.5 119.5t-89.5 23.5h-215v-594q0 -84 22 -109t96 -34v-68h-505v68q82 7 103 32t21 111v594h-137z" />
<glyph unicode="&#xfb02;" horiz-adv-x="1189" d="M41 834l61 71h86v35q0 101 48 203q62 120 165 190q140 99 279 107q117 0 213 -49q20 6 62 20l63 21l18 -11v-1206q0 -91 19.5 -113t107.5 -34v-68h-479v68q42 5 59 16t24 39t7 92v1030q-27 42 -72.5 72.5t-93.5 30.5q-72 0 -112 -70q-45 -73 -45 -236v-137h213 q7 -20 -1 -55t-28 -45h-184v-594q0 -88 17.5 -110t94.5 -33v-68h-504v68q89 12 109 33.5t20 109.5v594h-139z" />
</font>
</defs>
</svg>
